<?xml version="1.0" encoding="UTF-8" ?>
<!DOCTYPE svg PUBLIC "-//W3C//DTD SVG 1.1//EN" "http://www.w3.org/Graphics/SVG/1.1/DTD/svg11.dtd">
<svg width="681pt" height="598pt" viewBox="0 0 681 598" version="1.1" xmlns="http://www.w3.org/2000/svg">
<g id="#0f0b0bff">
<path fill="#0f0b0b" opacity="1.00" d=" M 0.00 0.00 L 616.79 0.00 C 616.09 0.26 614.69 0.79 613.99 1.05 C 618.26 6.53 625.54 8.52 629.54 14.28 C 632.35 19.16 636.06 24.08 635.72 30.02 C 636.08 34.09 634.17 37.78 632.04 41.09 C 631.60 41.32 630.70 41.77 630.26 42.00 C 628.09 45.60 624.10 47.33 621.01 49.97 C 619.45 51.52 617.17 51.36 615.17 51.56 C 615.08 56.30 618.33 60.28 618.37 65.03 C 619.05 70.32 617.03 75.37 614.81 80.05 C 610.27 89.82 599.31 96.30 588.50 94.13 C 588.44 93.34 588.31 91.74 588.24 90.94 C 596.02 89.62 604.34 86.82 609.17 80.18 C 614.80 72.90 615.62 62.74 612.68 54.23 C 610.68 53.02 608.18 52.48 606.81 50.43 C 611.26 48.40 616.58 47.74 620.02 43.94 C 622.63 41.18 626.16 39.42 628.47 36.38 C 631.37 30.69 631.41 23.71 628.38 18.04 C 625.19 9.93 616.95 6.03 609.95 1.84 C 606.44 0.62 602.70 0.80 599.06 0.81 C 567.72 1.07 536.36 0.38 505.04 1.25 C 492.21 1.17 479.38 1.34 466.55 1.00 C 469.50 5.45 474.63 8.10 476.87 13.06 C 481.15 23.83 480.93 36.11 477.08 46.96 C 472.07 62.34 459.63 74.17 445.85 81.98 C 442.10 84.36 437.73 85.41 433.87 87.56 C 436.83 89.06 440.25 89.91 442.68 92.29 C 446.81 96.87 447.99 103.94 445.38 109.56 C 442.84 114.99 438.53 119.32 434.31 123.46 C 430.91 124.45 427.58 125.72 424.09 126.38 C 423.60 126.14 423.12 125.89 422.64 125.65 C 428.12 122.40 433.63 118.64 436.72 112.89 C 439.78 108.79 440.65 103.30 439.42 98.39 C 437.01 94.24 432.55 91.54 427.94 90.49 C 425.79 90.03 423.88 88.95 422.13 87.65 C 425.39 86.81 428.72 86.11 431.81 84.71 C 443.04 79.39 453.81 72.36 461.38 62.33 C 468.88 53.70 473.30 42.39 473.40 30.94 C 473.60 24.50 473.33 17.25 468.68 12.25 C 465.02 8.33 461.47 3.91 456.34 1.87 C 451.71 0.24 446.76 1.24 441.99 1.16 C 431.66 1.15 421.33 1.04 411.00 1.18 C 409.91 2.06 408.81 2.94 407.72 3.82 C 407.15 2.94 406.59 2.06 406.04 1.18 C 387.03 1.32 368.03 0.62 349.02 1.14 C 316.70 1.13 284.37 1.22 252.05 1.07 C 243.38 1.35 234.70 0.77 226.04 1.36 C 206.88 1.60 187.73 1.22 168.58 1.50 C 162.04 0.84 155.48 1.39 148.94 1.23 C 124.62 1.05 100.29 1.60 75.98 0.92 C 76.61 2.65 77.25 4.37 77.83 6.11 C 76.29 4.52 74.94 2.75 73.88 0.80 C 70.74 0.64 67.58 0.82 64.48 1.34 C 43.38 1.63 22.27 0.48 1.19 1.31 C 1.20 6.80 1.17 12.29 1.19 17.77 C 1.42 34.20 1.12 50.62 1.33 67.04 C 1.72 74.67 0.62 82.32 1.33 89.93 C 4.59 94.26 9.67 96.68 13.89 99.95 C 12.93 102.55 11.84 105.23 12.15 108.07 C 12.15 113.40 15.58 117.76 17.77 122.38 C 19.69 123.27 21.61 124.16 23.53 125.05 C 23.51 125.67 23.46 126.90 23.44 127.52 C 23.76 127.18 24.39 126.50 24.71 126.15 C 30.49 128.57 36.54 130.94 42.92 130.68 C 41.27 130.93 39.63 131.19 37.99 131.46 C 47.11 131.67 56.33 130.57 64.96 127.53 C 67.87 126.57 71.14 125.70 74.12 126.86 C 75.89 130.77 76.74 135.14 79.46 138.59 C 82.73 142.86 85.76 147.46 89.97 150.88 C 95.51 154.70 101.54 157.93 108.10 159.58 C 121.87 164.33 137.05 160.41 149.25 153.27 C 152.84 156.59 156.45 160.18 161.15 161.88 C 166.96 163.98 173.16 164.60 179.24 165.46 C 180.49 154.69 183.83 144.24 183.94 133.34 C 180.86 132.69 178.00 131.39 175.50 129.49 C 173.69 127.81 171.21 129.10 169.14 129.39 C 160.76 131.51 151.00 131.52 144.01 125.72 C 140.63 123.81 140.38 119.48 138.69 116.58 C 136.09 117.74 134.24 121.11 131.00 121.38 C 123.92 122.19 116.28 121.50 110.00 117.89 C 103.59 114.23 101.46 106.14 102.09 99.22 C 102.71 99.24 103.96 99.29 104.59 99.32 C 105.62 105.00 106.81 111.54 111.96 115.03 C 117.76 118.65 125.00 119.11 131.63 118.32 C 135.06 117.28 137.40 113.60 141.36 114.24 C 142.98 116.67 144.45 119.37 146.91 121.05 C 151.06 123.60 155.91 124.67 160.72 125.03 C 166.29 125.69 171.78 124.00 177.36 124.29 C 178.61 123.77 179.86 123.26 181.12 122.77 C 181.05 124.82 179.55 126.09 178.10 127.29 C 183.98 130.74 191.12 131.27 197.60 129.37 C 201.88 127.87 205.30 124.79 208.86 122.11 C 213.55 125.58 219.02 128.66 225.06 128.23 C 236.24 128.21 246.19 122.37 255.06 116.15 C 253.57 123.30 247.07 127.81 240.98 130.94 C 233.22 134.79 223.44 136.82 215.42 132.65 C 215.37 139.76 215.54 146.94 214.12 153.95 C 213.26 158.17 213.30 162.70 211.04 166.51 C 211.13 166.81 211.32 167.43 211.41 167.74 C 210.90 170.25 210.41 172.77 209.94 175.30 C 212.88 175.78 216.06 176.41 218.84 174.92 C 221.77 173.83 225.39 171.19 228.31 173.67 C 232.29 176.92 237.50 177.67 242.12 179.61 C 245.39 172.83 249.83 166.70 252.93 159.85 C 249.46 157.80 245.81 155.57 243.76 151.97 C 242.91 150.24 243.72 148.37 244.70 146.91 C 247.42 151.03 250.78 155.00 255.59 156.67 C 263.97 160.12 273.24 157.80 281.61 155.57 C 283.97 159.71 286.30 164.89 291.48 165.99 C 299.89 167.33 308.54 166.54 316.91 165.25 C 310.98 171.85 301.49 174.47 292.90 172.76 C 287.96 172.15 283.91 168.93 280.47 165.57 C 278.59 164.04 278.94 161.46 278.54 159.32 C 277.79 159.40 277.06 159.48 276.33 159.56 C 269.89 162.42 262.73 162.74 255.92 161.15 C 253.53 166.63 250.73 171.91 248.48 177.44 C 242.12 189.31 234.95 200.86 225.94 210.93 C 223.05 214.22 219.25 216.54 216.28 219.76 C 216.68 220.50 217.49 221.98 217.90 222.71 C 220.73 221.14 223.88 219.67 225.71 216.86 C 227.10 214.80 228.29 212.61 229.56 210.47 C 230.12 210.43 231.25 210.34 231.81 210.30 C 232.56 214.36 230.13 218.05 227.03 220.42 C 225.78 221.39 224.53 222.36 223.32 223.39 C 221.53 224.19 219.61 224.59 217.69 224.93 C 217.62 226.05 217.56 227.17 217.51 228.30 C 216.12 229.77 214.60 231.14 212.76 232.03 C 210.06 233.34 207.62 235.13 205.59 237.34 C 205.53 237.40 205.41 237.51 205.35 237.57 C 202.66 239.89 199.73 242.78 195.96 242.87 C 194.24 243.11 193.91 241.20 193.18 240.12 C 194.14 240.22 196.06 240.42 197.02 240.52 C 199.87 238.99 202.61 237.21 204.75 234.77 C 207.49 231.74 211.12 229.76 214.17 227.10 C 216.11 225.48 215.20 222.84 215.03 220.71 C 208.79 226.02 201.43 229.76 194.11 233.34 C 192.30 234.33 190.27 234.67 188.23 234.77 C 187.45 232.75 185.24 231.03 185.91 228.67 C 188.56 214.99 197.05 203.41 200.56 190.01 C 204.84 178.56 207.86 166.67 209.74 154.60 C 210.97 148.08 212.02 141.52 212.90 134.93 C 214.20 130.60 208.39 129.50 207.16 125.91 C 203.63 128.46 200.34 131.59 196.09 132.91 C 193.04 133.97 189.77 133.67 186.61 133.43 C 186.92 143.16 186.19 152.88 184.76 162.49 C 184.07 166.13 182.67 169.60 182.25 173.30 C 183.20 173.30 185.10 173.30 186.06 173.30 C 187.20 171.33 189.40 169.50 188.74 166.98 C 187.96 162.93 188.42 158.75 190.07 154.97 C 190.55 154.64 191.52 153.97 192.01 153.64 C 194.24 157.98 192.01 162.69 191.37 167.13 C 191.07 169.85 189.36 172.00 187.67 174.01 C 188.27 175.63 188.84 177.25 189.38 178.89 C 188.30 181.40 187.49 184.01 186.88 186.68 C 187.99 186.67 189.11 186.67 190.22 186.67 C 191.21 185.41 192.40 184.34 193.81 183.57 C 193.74 184.29 193.61 185.74 193.54 186.46 C 191.22 188.53 188.34 189.65 185.21 189.56 C 185.98 192.92 187.21 196.79 184.94 199.86 C 184.25 200.02 182.87 200.33 182.18 200.48 C 182.23 201.05 182.32 202.19 182.37 202.75 C 181.71 202.59 180.39 202.26 179.73 202.09 C 180.63 198.86 183.25 196.36 183.74 192.97 C 184.55 188.84 185.44 184.69 187.41 180.93 C 186.77 179.29 186.30 177.54 185.20 176.12 C 183.97 175.27 182.41 175.50 181.00 175.40 C 178.93 187.95 171.14 198.33 164.28 208.66 C 165.95 209.74 167.61 210.85 169.26 211.97 C 171.40 208.62 173.19 205.07 175.27 201.68 C 177.00 206.46 173.82 211.23 170.35 214.29 C 170.02 216.55 170.05 218.90 169.27 221.07 C 167.16 225.28 161.41 226.19 159.82 230.77 C 158.49 233.88 156.94 237.06 154.20 239.18 C 152.81 240.24 150.84 241.46 149.14 240.32 C 151.55 238.01 154.55 236.18 156.16 233.17 C 157.70 230.38 158.65 227.26 160.80 224.84 C 162.79 222.13 166.01 219.78 165.81 216.04 C 165.97 213.87 164.13 212.31 163.12 210.59 C 159.29 216.47 154.73 221.81 150.13 227.09 C 146.36 231.04 142.05 234.44 138.49 238.60 C 137.70 238.60 136.12 238.60 135.33 238.60 C 135.46 239.43 135.73 241.10 135.86 241.94 C 130.66 246.84 126.11 252.51 122.83 258.88 C 120.32 263.67 116.67 267.86 115.03 273.09 C 112.41 281.31 107.36 288.64 105.69 297.17 C 103.41 311.99 99.93 326.63 95.55 340.95 C 93.45 349.65 90.19 358.04 86.17 366.01 C 85.80 366.50 85.07 367.48 84.71 367.96 C 81.53 376.87 75.16 384.00 69.22 391.15 C 66.85 393.88 63.85 395.95 60.85 397.93 C 56.12 394.07 54.07 388.13 50.54 383.32 C 48.34 379.63 45.59 375.35 46.22 370.98 L 46.59 370.77 C 48.83 373.42 49.61 376.94 51.44 379.85 C 54.26 384.50 57.09 389.15 60.10 393.68 C 62.22 394.42 63.45 392.28 64.65 390.95 C 68.70 385.55 73.47 380.51 75.87 374.08 C 81.53 364.98 85.25 354.89 89.07 344.92 C 90.72 340.75 91.80 336.38 93.06 332.08 C 94.74 325.93 96.15 319.70 98.89 313.91 C 101.48 304.17 103.73 294.22 107.94 285.02 C 112.23 278.08 113.61 269.79 118.05 262.93 C 120.54 258.48 123.20 254.14 126.03 249.90 C 126.52 248.92 127.63 248.60 128.51 248.06 C 128.37 245.24 130.42 243.16 131.81 240.94 C 133.87 237.98 135.52 234.69 138.15 232.16 C 147.22 223.55 155.49 214.14 163.64 204.67 C 168.17 199.74 170.82 193.45 173.20 187.28 C 175.98 180.68 177.75 173.71 179.16 166.71 C 176.40 166.56 173.70 166.95 171.04 167.65 C 164.99 167.16 158.24 166.84 153.52 162.52 C 151.11 160.91 149.89 158.24 148.65 155.74 C 144.70 157.24 141.59 160.24 137.76 161.99 C 122.56 168.77 104.47 165.86 90.59 157.30 C 83.08 152.79 77.87 145.42 73.82 137.82 C 72.31 134.45 71.81 130.73 72.18 127.07 C 64.47 130.34 56.98 134.70 48.50 135.62 C 39.30 137.17 29.23 135.88 21.41 130.56 C 17.66 128.87 13.69 126.88 11.74 123.03 C 8.41 118.83 8.11 113.35 7.21 108.28 C 7.93 105.14 9.96 102.59 11.09 99.64 C 7.68 97.86 4.27 96.10 0.80 94.45 C 0.77 135.94 0.80 177.44 0.80 218.94 C 0.72 222.23 1.23 225.65 0.00 228.79 L 0.00 0.00 M 221.24 174.97 C 217.65 177.40 213.16 177.38 209.04 176.69 C 208.18 180.17 207.61 183.81 205.86 187.00 C 203.57 192.04 202.41 197.55 199.63 202.39 C 197.69 206.88 194.74 210.86 193.27 215.56 C 190.63 220.69 187.83 226.18 187.89 232.06 C 188.22 232.22 188.88 232.55 189.21 232.72 C 195.10 230.02 200.39 226.16 205.86 222.71 C 213.33 216.66 220.46 210.08 226.55 202.61 C 228.92 199.33 231.44 196.18 233.92 192.98 C 236.33 189.68 238.50 186.17 240.01 182.36 C 234.54 182.09 228.24 180.10 226.32 174.38 C 225.45 171.77 222.75 174.34 221.24 174.97 Z" />
<path fill="#0f0b0b" opacity="1.00" d=" M 162.70 10.56 C 162.74 7.19 164.31 4.20 166.00 1.39 C 167.52 1.66 168.73 2.51 169.64 3.74 C 168.16 6.73 167.09 11.44 162.70 10.56 Z" />
<path fill="#0f0b0b" opacity="1.00" d=" M 144.79 5.69 C 145.15 4.66 146.79 3.32 147.63 4.73 C 146.83 8.48 145.97 13.12 142.27 15.12 C 141.88 11.75 143.07 8.53 144.79 5.69 Z" />
<path fill="#0f0b0b" opacity="1.00" d=" M 329.14 85.17 C 332.04 82.79 334.79 79.38 338.89 79.42 C 337.25 84.41 331.92 87.63 327.05 88.98 C 327.22 87.45 327.84 86.07 329.14 85.17 Z" />
<path fill="#0f0b0b" opacity="1.00" d=" M 354.98 87.80 C 356.85 84.36 360.21 81.48 363.95 80.29 C 366.35 79.85 365.21 82.33 364.35 83.33 C 362.10 86.18 358.33 87.02 354.98 87.80 Z" />
<path fill="#0f0b0b" opacity="1.00" d=" M 584.09 91.69 C 584.99 91.55 586.78 91.26 587.68 91.12 C 587.64 91.85 587.57 93.32 587.53 94.05 C 587.01 94.04 585.97 94.01 585.45 94.00 C 585.16 94.62 584.58 95.87 584.29 96.49 C 583.53 106.04 586.22 116.44 581.06 125.16 C 578.97 130.75 575.45 135.58 572.62 140.78 C 568.93 145.80 565.64 151.34 560.46 154.99 C 554.49 159.27 548.52 164.51 540.91 165.30 C 535.31 166.19 529.65 167.08 523.98 166.62 C 519.22 165.94 513.86 165.25 511.00 160.87 C 508.67 166.08 506.14 171.18 503.03 175.96 C 499.75 182.75 493.78 187.52 488.19 192.33 C 487.26 192.93 486.33 193.53 485.41 194.13 C 480.56 196.24 475.77 198.44 470.73 200.07 C 464.02 202.43 456.91 202.97 449.94 204.18 C 443.68 204.98 437.49 203.33 431.30 202.63 C 421.92 200.55 413.15 196.35 405.04 191.26 C 404.40 191.48 403.11 191.94 402.47 192.17 C 397.59 201.34 389.11 208.28 379.90 212.84 C 376.26 214.94 371.88 214.79 368.06 216.39 C 360.36 216.85 350.32 217.15 346.00 209.37 C 344.81 209.35 343.62 209.35 342.44 209.37 C 340.06 212.25 337.19 214.75 333.90 216.53 C 329.67 218.74 324.83 216.94 320.73 215.33 C 316.66 213.72 315.49 209.14 314.78 205.27 C 309.81 205.88 305.02 207.48 300.03 207.91 C 289.20 208.41 277.50 206.13 269.37 198.47 C 268.53 198.42 267.68 198.38 266.84 198.34 C 263.98 206.05 259.09 212.76 254.34 219.38 C 245.96 229.00 237.50 238.78 226.73 245.83 C 221.74 250.24 216.03 253.68 210.62 257.55 C 206.66 259.76 202.79 262.22 199.56 265.43 C 196.27 266.80 193.50 269.07 190.80 271.34 C 190.09 271.16 188.65 270.82 187.93 270.65 C 196.75 261.91 206.96 254.89 217.14 247.88 C 223.36 242.17 230.20 237.16 236.27 231.29 C 244.15 222.78 252.61 214.68 258.73 204.75 C 262.38 198.60 266.34 192.56 269.07 185.92 C 271.88 178.98 274.71 172.05 277.99 165.32 C 277.84 171.67 276.63 178.33 273.03 183.68 C 273.24 187.64 271.26 191.17 270.28 194.90 C 270.70 196.22 271.45 197.49 272.56 198.35 C 279.06 202.28 286.41 204.88 294.08 204.97 C 302.00 206.37 309.80 203.96 317.62 203.06 C 318.96 205.92 319.65 209.57 322.59 211.27 C 325.53 212.62 328.83 213.29 332.06 213.15 C 337.22 212.30 340.12 207.14 344.94 205.60 C 348.51 205.99 351.29 208.85 354.85 209.45 C 367.80 212.06 381.92 208.62 392.07 200.12 C 396.40 196.53 400.87 193.00 404.14 188.36 C 414.45 192.52 424.61 197.82 435.90 198.60 C 445.33 200.42 454.85 198.35 464.09 196.49 C 468.49 195.26 472.86 193.89 477.40 193.24 C 480.01 191.35 482.93 189.96 485.83 188.58 C 489.89 186.60 492.90 183.14 496.18 180.14 C 496.96 180.18 498.52 180.26 499.30 180.31 C 499.28 179.52 499.23 177.96 499.21 177.18 C 504.18 170.94 508.35 164.07 511.66 156.81 C 511.61 158.21 511.56 159.61 511.52 161.01 C 517.28 162.12 523.03 164.04 528.99 163.48 C 534.38 162.93 539.89 162.65 545.05 160.86 C 552.56 158.17 559.53 153.79 564.71 147.67 C 571.59 140.39 576.10 131.35 580.33 122.37 C 585.19 112.76 580.62 101.67 584.09 91.69 Z" />
<path fill="#0f0b0b" opacity="1.00" d=" M 322.00 119.33 C 324.80 116.15 328.59 113.83 332.83 113.23 C 331.46 117.45 326.14 119.53 322.00 119.33 Z" />
<path fill="#0f0b0b" opacity="1.00" d=" M 192.77 140.80 C 193.21 140.71 194.09 140.53 194.53 140.44 C 194.81 143.50 193.91 146.66 191.75 148.89 C 191.44 146.14 191.83 143.39 192.77 140.80 Z" />
<path fill="#0f0b0b" opacity="1.00" d=" M 194.20 163.53 C 194.83 163.53 196.07 163.53 196.70 163.52 C 200.35 166.97 197.90 172.32 196.26 176.16 C 195.01 178.38 196.43 182.20 193.43 183.07 C 193.51 179.97 193.74 176.82 195.22 174.02 C 196.97 170.59 195.86 166.74 194.20 163.53 Z" />
<path fill="#0f0b0b" opacity="1.00" d=" M 190.55 199.76 C 189.38 196.90 191.34 194.40 192.80 192.12 C 192.37 194.75 192.41 197.62 190.55 199.76 Z" />
<path fill="#0f0b0b" opacity="1.00" d=" M 238.70 201.36 C 239.87 198.20 241.40 194.76 244.55 193.14 C 244.93 196.63 243.19 202.35 238.70 201.36 Z" />
<path fill="#0f0b0b" opacity="1.00" d=" M 184.39 203.00 C 185.25 203.42 186.07 203.93 186.83 204.53 C 186.78 206.70 186.38 208.89 184.89 210.55 C 182.00 213.96 180.67 218.25 179.25 222.40 C 177.38 222.77 175.50 223.14 173.62 223.50 C 173.75 222.82 174.00 221.48 174.13 220.80 C 174.92 220.70 176.49 220.50 177.28 220.40 C 179.24 215.31 182.78 210.86 183.67 205.39 C 183.85 204.79 184.21 203.60 184.39 203.00 Z" />
<path fill="#0f0b0b" opacity="1.00" d=" M 218.70 231.77 C 222.12 229.42 225.29 226.76 228.16 223.78 C 228.36 224.46 228.76 225.83 228.96 226.52 C 228.86 227.23 228.68 228.66 228.59 229.38 C 227.51 230.35 226.42 231.32 225.31 232.25 C 221.58 233.76 217.36 235.05 215.77 239.20 C 213.86 239.43 211.93 239.46 210.01 239.30 C 208.64 238.52 208.11 236.97 207.31 235.73 C 207.99 235.84 209.34 236.06 210.02 236.16 C 211.68 236.43 213.36 236.58 215.05 236.68 C 216.08 234.92 216.91 232.90 218.70 231.77 Z" />
<path fill="#0f0b0b" opacity="1.00" d=" M 174.88 226.17 C 175.53 226.29 176.82 226.52 177.47 226.64 C 177.58 229.44 177.51 232.35 176.14 234.89 C 175.31 236.96 173.03 237.80 171.54 239.31 C 170.39 243.24 170.61 247.75 168.04 251.16 C 164.97 253.81 160.66 254.81 157.82 257.65 C 156.53 262.34 156.12 267.44 152.92 271.36 C 149.78 272.92 146.36 274.68 142.76 273.47 L 144.20 272.07 C 151.05 272.35 154.27 265.31 155.21 259.58 C 155.98 251.99 165.85 250.44 166.99 243.07 C 167.97 238.35 169.75 232.92 174.74 231.10 C 174.33 231.17 173.51 231.30 173.10 231.36 C 173.69 229.63 174.29 227.91 174.88 226.17 Z" />
<path fill="#0f0b0b" opacity="1.00" d=" M 183.86 234.36 C 184.59 234.34 186.04 234.28 186.76 234.25 C 186.96 234.60 187.36 235.28 187.55 235.63 C 184.41 238.74 182.12 243.82 177.17 244.07 C 180.25 241.48 181.99 237.83 183.86 234.36 Z" />
<path fill="#0f0b0b" opacity="1.00" d=" M 141.19 242.04 C 143.90 242.66 145.64 245.37 146.19 247.93 C 146.65 253.23 147.32 259.24 143.90 263.77 C 141.03 267.38 137.15 269.99 133.75 273.07 C 133.72 275.03 133.22 277.10 134.16 278.95 C 135.19 276.30 137.81 275.21 140.46 275.51 C 140.49 276.89 140.50 278.28 140.50 279.68 C 139.17 279.17 137.85 278.63 136.57 278.04 C 131.92 280.59 133.90 287.68 129.59 290.65 C 128.02 292.02 125.77 291.54 123.86 291.72 C 124.61 289.29 128.05 290.40 129.41 288.47 C 133.72 283.84 131.75 277.16 132.83 271.55 C 134.68 267.99 137.73 265.22 139.51 261.62 C 141.28 258.13 143.13 254.66 144.40 250.96 C 145.25 248.80 143.04 247.63 142.01 246.11 C 140.98 245.03 141.40 243.38 141.19 242.04 Z" />
<path fill="#0f0b0b" opacity="1.00" d=" M 187.72 254.15 C 190.31 252.14 192.90 250.11 195.24 247.80 L 195.95 248.41 C 195.63 250.35 194.74 252.11 193.61 253.71 C 192.31 254.55 190.92 255.39 189.30 255.18 C 188.90 254.92 188.11 254.41 187.72 254.15 Z" />
<path fill="#0f0b0b" opacity="1.00" d=" M 173.49 258.08 C 176.05 255.03 179.32 252.50 180.87 248.70 C 181.52 248.63 182.82 248.48 183.47 248.41 C 183.30 252.93 180.40 256.37 177.42 259.44 C 176.08 259.44 174.76 259.44 173.43 259.44 C 173.44 259.10 173.47 258.42 173.49 258.08 Z" />
<path fill="#0f0b0b" opacity="1.00" d=" M 165.32 264.53 C 165.69 264.42 166.43 264.20 166.79 264.09 C 167.13 267.53 165.00 271.98 161.12 271.99 C 161.80 269.16 163.44 266.69 165.32 264.53 Z" />
<path fill="#0f0b0b" opacity="1.00" d=" M 181.73 275.67 C 183.68 274.47 185.19 271.69 187.85 272.66 C 187.30 272.89 186.21 273.35 185.66 273.58 C 182.30 276.03 179.38 279.14 177.32 282.76 C 176.16 283.82 174.94 284.82 173.86 285.96 C 171.05 288.87 168.67 292.22 167.14 295.97 C 166.88 296.55 166.36 297.72 166.10 298.30 C 165.47 300.20 163.56 300.09 161.89 300.17 C 162.00 301.77 162.14 303.37 162.26 304.98 L 162.23 306.17 C 162.10 306.75 161.83 307.91 161.69 308.49 C 161.32 308.42 160.59 308.29 160.22 308.23 C 159.90 311.13 160.12 314.27 158.63 316.89 L 158.29 317.22 C 157.22 314.86 157.93 312.28 158.58 309.92 C 159.96 305.06 161.00 300.04 163.43 295.56 C 167.26 287.20 174.24 280.76 181.73 275.67 Z" />
<path fill="#0f0b0b" opacity="1.00" d=" M 153.03 275.42 C 153.72 275.40 155.10 275.37 155.79 275.36 C 156.84 277.81 157.05 280.78 155.47 283.07 C 152.05 287.72 152.60 294.73 147.37 298.14 C 147.33 297.55 147.25 296.38 147.21 295.79 C 148.90 291.42 150.92 287.18 152.75 282.87 C 153.95 280.54 153.31 277.88 153.03 275.42 Z" />
<path fill="#0f0b0b" opacity="1.00" d=" M 119.70 278.91 C 120.02 276.82 123.23 276.86 123.74 278.82 C 125.40 282.01 124.50 286.36 121.45 288.42 C 117.28 290.79 118.45 296.11 117.74 300.10 C 116.02 301.97 114.53 304.77 111.52 304.26 C 113.36 302.31 113.86 298.41 117.07 298.40 C 116.63 298.18 115.76 297.74 115.32 297.51 C 115.15 293.27 115.89 288.71 119.18 285.72 C 119.38 283.45 119.41 281.17 119.70 278.91 Z" />
<path fill="#0f0b0b" opacity="1.00" d=" M 134.23 298.39 C 136.49 294.87 138.05 290.97 140.15 287.37 C 141.78 291.73 139.85 296.05 137.85 299.89 C 138.71 302.14 140.30 305.18 137.28 306.53 C 136.30 305.15 135.32 303.76 134.28 302.43 C 133.82 302.38 132.88 302.29 132.42 302.25 C 131.44 302.18 129.49 302.05 128.51 301.99 C 127.32 305.20 126.36 308.60 124.13 311.30 C 124.58 307.55 125.36 303.66 127.48 300.48 C 128.93 298.21 131.95 298.75 134.23 298.39 Z" />
<path fill="#0f0b0b" opacity="1.00" d=" M 119.84 302.92 C 122.42 303.24 121.90 306.19 121.87 308.04 C 121.97 311.42 119.05 313.59 118.07 316.60 C 121.99 318.88 119.87 323.70 118.94 327.09 C 118.32 328.65 117.70 331.50 115.23 330.42 C 114.40 325.89 117.45 320.86 114.39 316.84 C 116.12 315.04 118.01 313.29 119.02 310.95 C 120.29 308.47 119.69 305.59 119.84 302.92 Z" />
<path fill="#0f0b0b" opacity="1.00" d=" M 168.44 313.73 C 174.02 312.17 179.11 309.19 184.80 308.01 C 184.90 308.64 185.09 309.89 185.18 310.52 C 184.62 312.07 184.43 313.88 183.19 315.09 C 181.18 316.24 178.95 316.93 176.84 317.86 C 171.96 319.46 167.32 321.89 162.26 322.84 C 161.97 322.97 161.40 323.24 161.11 323.38 C 160.46 323.49 159.15 323.71 158.50 323.82 C 165.94 319.67 173.94 316.69 181.76 313.38 C 182.04 312.79 182.60 311.63 182.88 311.05 C 176.34 311.59 171.16 316.44 164.59 317.00 L 164.29 316.88 C 164.44 314.97 166.95 314.42 168.44 313.73 Z" />
<path fill="#0f0b0b" opacity="1.00" d=" M 135.94 309.16 C 138.62 309.23 138.17 311.92 138.50 313.83 C 139.14 313.76 140.40 313.63 141.03 313.56 C 142.39 314.37 143.75 315.18 145.11 315.97 C 148.03 321.64 145.78 328.09 141.81 332.56 C 140.44 340.57 140.12 349.59 134.37 355.98 C 134.41 359.93 138.25 362.83 137.31 366.93 C 137.38 371.53 134.79 375.40 131.85 378.68 C 124.53 386.86 125.61 399.17 118.30 407.36 C 116.73 409.60 113.83 409.53 111.41 409.87 C 111.28 413.56 111.77 417.40 110.61 420.97 C 108.88 424.28 105.03 425.68 102.84 428.61 C 101.49 431.69 101.25 435.27 99.18 438.03 C 97.12 440.79 93.73 442.10 90.53 443.04 C 90.38 445.94 90.18 448.95 88.76 451.57 C 87.40 454.77 83.88 456.19 82.17 459.15 C 80.36 462.02 78.76 465.20 75.93 467.25 C 73.05 468.52 69.86 467.31 66.84 467.60 C 64.46 469.14 61.89 470.42 59.01 470.60 C 59.06 470.91 59.17 471.52 59.23 471.82 C 59.42 474.85 59.82 478.25 57.96 480.89 C 56.45 483.54 53.39 484.54 50.88 485.96 C 46.37 488.17 42.71 491.77 39.81 495.82 C 37.33 499.30 33.92 501.92 30.46 504.36 C 28.63 504.49 26.79 504.59 24.95 504.58 C 24.46 504.18 23.48 503.39 23.00 502.99 C 26.84 502.26 30.87 501.40 33.79 498.59 C 40.45 492.10 44.76 482.98 53.33 478.62 C 54.72 474.83 55.88 470.94 56.48 466.94 C 56.77 466.66 57.35 466.09 57.64 465.80 C 58.21 466.97 58.94 468.17 60.36 467.28 C 66.22 464.56 70.49 459.13 73.01 453.28 C 73.49 452.91 73.96 452.53 74.44 452.17 C 74.35 454.22 74.26 456.28 74.06 458.34 C 72.70 460.34 71.47 462.43 70.28 464.54 C 75.10 464.92 78.50 461.33 80.63 457.47 C 83.74 453.00 86.00 448.03 88.13 443.04 C 87.04 442.28 85.95 441.53 84.90 440.74 C 84.01 440.02 83.16 439.27 82.30 438.52 C 80.18 440.28 77.73 441.59 74.92 441.70 C 75.22 441.08 75.52 440.47 75.84 439.88 C 81.78 437.01 84.10 430.65 87.63 425.55 C 89.15 423.14 91.82 421.60 93.03 418.98 C 93.84 416.29 93.42 413.44 93.34 410.69 C 93.51 410.52 93.85 410.18 94.02 410.01 C 94.56 410.30 95.64 410.89 96.18 411.18 C 97.61 414.71 98.16 418.90 96.32 422.39 C 94.95 424.85 92.34 426.10 89.80 427.01 C 87.94 430.66 84.11 433.87 84.52 438.27 C 88.58 438.50 93.63 440.10 96.90 436.86 C 99.64 433.37 99.74 428.60 101.99 424.82 C 103.95 420.20 109.12 417.30 109.31 411.91 C 108.77 409.86 107.81 407.97 106.99 406.04 C 106.20 406.91 105.41 407.79 104.61 408.67 C 102.90 410.73 100.44 411.94 97.73 411.39 C 104.43 408.15 108.60 400.70 107.91 393.28 C 108.52 393.95 109.14 394.62 109.75 395.30 C 109.41 398.70 108.63 402.03 107.41 405.23 C 109.96 405.73 112.47 406.42 114.90 407.35 C 117.31 404.88 119.78 402.30 121.02 399.01 C 123.90 392.79 123.45 385.62 126.57 379.47 C 128.68 374.47 134.16 370.10 132.08 364.12 C 131.17 361.40 130.80 356.60 126.86 357.23 C 124.17 359.29 121.57 361.49 119.00 363.71 C 119.13 363.37 119.39 362.68 119.52 362.33 C 120.05 360.92 120.62 359.52 121.15 358.11 C 121.39 357.49 121.88 356.26 122.12 355.64 C 123.87 355.42 125.63 355.20 127.36 354.82 C 129.29 354.44 131.26 354.38 133.22 354.34 C 134.98 350.70 137.04 347.11 137.78 343.09 C 138.89 337.63 139.04 331.85 141.70 326.82 C 143.83 323.25 141.57 319.23 138.76 316.85 C 137.53 318.07 137.48 319.97 136.79 321.49 C 135.91 324.84 133.57 327.18 130.35 328.31 C 130.80 330.86 132.40 333.36 131.53 336.00 C 130.81 339.53 127.99 342.02 126.46 345.17 C 125.26 348.14 125.15 351.39 124.40 354.49 L 122.49 354.89 C 123.18 349.82 123.34 344.49 125.63 339.80 C 127.67 335.99 126.45 331.54 126.15 327.47 C 124.83 327.35 123.52 327.24 122.20 327.13 C 122.30 326.47 122.50 325.17 122.60 324.52 C 124.31 324.56 126.02 324.60 127.73 324.64 L 128.12 326.11 C 129.49 325.61 131.35 325.53 132.01 323.98 C 134.45 319.42 135.40 314.26 135.94 309.16 M 92.26 423.29 C 92.81 423.75 92.81 423.75 92.26 423.29 Z" />
<path fill="#0f0b0b" opacity="1.00" d=" M 159.54 317.68 C 160.39 316.29 162.62 315.90 163.32 317.62 C 162.33 318.79 160.62 318.61 159.54 317.68 Z" />
<path fill="#0f0b0b" opacity="1.00" d=" M 155.01 325.08 C 155.45 325.29 156.33 325.72 156.77 325.93 C 154.38 331.74 153.08 337.89 151.44 343.92 C 150.78 350.66 147.83 356.89 147.37 363.66 C 152.96 363.52 157.60 359.90 162.99 358.84 C 167.86 358.03 172.60 356.61 177.05 354.46 C 179.52 354.24 181.89 353.52 184.24 352.75 C 184.28 353.06 184.37 353.68 184.41 353.99 C 184.21 354.09 183.80 354.29 183.60 354.39 C 178.77 355.95 173.94 357.54 168.98 358.64 C 160.94 360.26 153.24 363.10 145.43 365.57 C 145.26 363.42 145.06 361.22 145.69 359.13 C 147.79 351.52 148.12 343.52 150.68 336.04 C 151.42 332.13 153.18 328.56 155.01 325.08 Z" />
<path fill="#0f0b0b" opacity="1.00" d=" M 107.61 330.41 C 109.96 331.54 112.78 332.31 114.39 334.50 C 115.55 337.93 115.45 341.67 115.08 345.24 C 114.71 352.09 109.63 357.30 108.09 363.83 C 107.95 364.31 107.67 365.27 107.53 365.75 C 106.77 368.19 105.85 370.59 104.88 372.95 C 104.08 373.83 103.62 375.85 102.11 374.90 C 100.42 373.22 102.73 371.46 103.44 369.87 C 104.78 364.88 106.60 360.05 108.21 355.15 C 109.20 352.11 111.10 349.32 111.15 346.04 C 111.27 342.69 111.13 339.34 111.19 336.00 C 110.61 335.46 109.46 334.39 108.88 333.86 C 108.09 333.14 107.28 332.46 106.48 331.78 C 106.76 331.43 107.33 330.75 107.61 330.41 Z" />
<path fill="#0f0b0b" opacity="1.00" d=" M 214.09 336.25 C 215.38 335.39 216.60 334.44 217.78 333.44 C 218.12 335.03 218.45 336.62 218.73 338.22 C 215.90 341.92 213.05 345.68 209.38 348.60 C 205.90 351.19 201.82 352.80 198.30 355.32 C 194.13 358.20 189.42 360.11 184.68 361.80 C 176.13 364.85 166.69 365.10 158.53 369.23 C 156.70 369.44 155.01 370.12 153.48 371.14 C 151.80 371.64 150.13 372.14 148.45 372.66 C 147.41 373.46 146.36 374.25 145.30 375.04 C 140.99 383.42 141.50 393.11 137.94 401.73 C 136.45 404.40 135.32 407.26 134.03 410.04 C 133.22 411.74 130.68 411.80 129.17 411.30 C 131.67 405.56 134.36 399.88 136.42 393.96 C 138.05 387.48 139.90 380.94 143.13 375.06 C 145.45 373.82 147.86 372.71 149.90 371.01 C 157.16 365.43 166.17 363.09 174.83 360.65 C 189.53 356.20 202.76 348.21 216.17 340.94 C 217.65 339.47 216.05 337.09 216.29 335.29 C 215.74 335.53 214.64 336.01 214.09 336.25 Z" />
<path fill="#0f0b0b" opacity="1.00" d=" M 202.29 343.86 C 204.55 342.22 206.93 340.74 209.11 338.98 L 210.50 338.40 C 208.12 340.89 205.51 343.23 202.44 344.82 L 202.20 344.80 C 202.22 344.57 202.27 344.10 202.29 343.86 Z" />
<path fill="#0f0b0b" opacity="1.00" d=" M 184.22 352.18 C 190.57 351.83 194.72 344.87 201.15 345.53 C 197.05 348.49 192.29 350.26 187.89 352.71 L 186.29 353.44 C 185.59 353.02 184.90 352.60 184.22 352.18 Z" />
<path fill="#0f0b0b" opacity="1.00" d=" M 111.09 362.15 C 112.10 362.28 114.11 362.53 115.12 362.66 C 119.49 365.73 119.12 372.07 117.29 376.47 C 114.01 381.66 112.62 387.71 109.80 393.13 C 109.49 393.23 108.87 393.43 108.56 393.52 C 109.14 387.18 111.86 381.23 113.57 375.10 C 113.59 373.38 115.28 372.82 116.38 371.92 C 116.11 371.46 115.57 370.52 115.31 370.06 C 114.85 370.60 114.40 371.15 113.95 371.70 C 113.84 369.24 113.04 366.97 111.73 364.93 C 111.57 364.23 111.25 362.84 111.09 362.15 Z" />
<path fill="#0f0b0b" opacity="1.00" d=" M 40.28 370.07 C 41.62 368.92 42.95 367.75 44.30 366.63 L 45.46 366.79 C 45.34 367.54 45.11 369.04 44.99 369.80 C 44.24 370.60 43.37 371.27 42.39 371.82 C 43.28 373.91 44.06 376.05 44.75 378.22 L 44.27 377.98 C 43.67 377.25 43.36 376.37 43.35 375.35 C 42.34 373.58 41.30 371.83 40.28 370.07 Z" />
<path fill="#0f0b0b" opacity="1.00" d=" M 84.53 370.79 C 87.19 370.13 91.48 368.97 92.86 372.19 C 95.19 376.72 91.34 381.28 88.38 384.45 C 82.49 388.57 78.52 394.68 73.99 400.12 C 73.66 400.53 73.00 401.35 72.67 401.75 C 71.20 405.05 68.39 407.57 66.89 410.89 C 65.16 413.55 64.21 417.72 60.39 417.87 C 60.36 420.19 60.62 423.00 57.80 423.79 C 56.84 421.87 56.70 419.79 57.18 417.71 C 56.48 417.66 55.06 417.55 54.35 417.50 C 54.31 416.99 54.21 415.96 54.16 415.44 C 57.25 414.61 61.34 415.46 63.52 412.62 C 64.52 410.52 65.08 408.22 66.40 406.28 C 72.60 397.37 79.47 388.94 87.03 381.16 C 88.56 379.33 88.59 376.87 88.71 374.62 C 86.73 373.84 83.24 373.88 84.53 370.79 Z" />
<path fill="#0f0b0b" opacity="1.00" d=" M 45.17 379.24 L 45.41 379.06 C 47.26 381.82 48.30 385.02 50.06 387.84 C 52.22 391.77 55.11 395.29 56.91 399.41 C 52.61 395.72 50.51 390.31 47.57 385.61 C 46.47 383.63 44.99 381.62 45.17 379.24 Z" />
<path fill="#0f0b0b" opacity="1.00" d=" M 91.21 390.11 C 91.73 388.47 91.35 386.35 92.92 385.23 C 93.83 386.45 94.74 387.69 95.66 388.91 C 95.36 391.70 94.63 394.42 93.66 397.04 C 92.08 401.16 92.36 405.98 89.36 409.50 C 85.08 416.86 76.92 420.21 70.99 425.90 C 70.93 425.37 70.79 424.29 70.73 423.75 C 72.23 421.65 74.08 419.82 76.15 418.28 C 79.79 415.54 82.83 412.10 85.63 408.53 C 88.29 405.35 87.37 400.93 88.55 397.21 C 89.42 394.83 90.67 392.59 91.21 390.11 Z" />
<path fill="#0f0b0b" opacity="1.00" d=" M 57.08 399.56 C 57.45 399.79 58.19 400.23 58.56 400.45 C 51.62 411.72 43.98 423.01 33.20 430.99 C 26.36 435.74 19.99 441.29 12.31 444.68 C 12.35 447.13 12.10 449.57 12.01 452.02 C 13.33 454.41 14.63 456.83 13.70 459.64 C 18.23 456.90 22.44 453.68 26.62 450.44 C 28.22 449.10 30.21 448.43 32.16 447.82 C 35.48 444.17 39.48 440.95 41.73 436.47 C 42.02 433.30 41.17 430.12 41.32 426.94 C 45.03 427.48 45.52 431.59 46.85 434.40 C 49.22 432.60 51.34 430.53 53.57 428.59 C 59.71 424.73 70.60 429.79 68.48 437.86 C 66.63 442.03 61.91 443.80 58.60 446.64 C 57.88 449.49 57.26 452.37 56.28 455.14 C 55.08 459.43 50.89 462.24 46.64 462.89 C 46.25 462.26 45.48 460.99 45.09 460.36 C 47.51 458.39 50.31 456.78 52.22 454.25 C 53.82 451.08 54.02 447.21 56.48 444.50 C 58.98 441.40 63.27 439.97 64.67 436.00 C 63.97 434.86 63.25 433.74 62.52 432.64 C 59.60 431.58 55.94 430.06 53.14 432.19 C 49.51 434.85 44.94 436.73 42.83 440.96 C 40.95 444.06 37.94 446.20 35.37 448.69 C 38.64 451.47 43.41 453.70 43.73 458.57 L 44.00 459.31 C 44.24 459.62 44.70 460.23 44.94 460.54 C 45.01 460.96 45.14 461.81 45.21 462.24 L 43.88 460.05 C 41.12 463.55 37.36 466.07 34.48 469.44 C 33.31 471.75 34.36 474.73 32.91 476.99 C 31.83 478.63 30.34 479.97 28.80 481.19 C 27.05 481.35 25.29 481.36 23.54 481.35 C 25.78 479.06 28.57 477.23 30.32 474.51 C 30.73 472.75 30.79 470.92 31.25 469.18 C 33.90 465.92 37.52 463.49 39.73 459.86 C 39.93 458.33 38.60 457.35 37.67 456.39 C 35.53 454.25 33.04 452.20 29.83 452.31 C 22.33 460.83 11.21 464.74 1.45 469.98 C 0.90 473.51 1.20 477.09 1.37 480.65 C 3.95 480.24 6.55 480.15 9.15 480.37 C 12.84 480.69 16.44 478.99 20.13 479.80 C 21.08 480.89 22.00 482.02 22.93 483.15 C 22.86 484.37 22.79 485.60 22.71 486.83 C 20.94 486.75 19.11 486.61 17.61 485.58 C 17.05 485.24 15.94 484.57 15.38 484.24 C 13.31 484.95 11.17 485.47 8.98 485.69 C 6.74 484.11 4.12 483.29 1.38 483.28 C 1.23 486.38 1.17 489.48 1.27 492.58 C 2.63 493.53 2.76 494.85 2.04 496.26 C 0.79 499.94 1.25 503.89 1.17 507.71 C 4.01 504.49 8.07 502.86 11.39 500.24 C 14.69 497.93 17.25 494.80 20.02 491.92 C 20.66 491.43 21.94 490.45 22.58 489.96 C 22.49 497.66 16.47 503.77 10.03 507.14 C 7.38 508.70 3.87 508.33 1.54 510.45 C 0.83 513.58 1.31 516.84 1.23 520.03 C 1.42 523.96 0.55 527.91 1.31 531.81 C 1.76 531.53 2.65 530.98 3.09 530.71 C 6.64 528.50 9.64 525.55 12.48 522.52 C 15.73 519.15 16.97 514.51 19.13 510.48 C 19.57 512.40 19.96 514.34 20.24 516.30 C 18.92 520.27 17.61 524.48 14.41 527.38 C 10.83 531.18 5.96 533.26 1.20 535.16 C 1.05 538.14 1.06 541.15 1.65 544.10 C 2.56 543.08 3.45 542.11 4.34 541.10 C 4.50 541.79 4.82 543.17 4.98 543.86 C 3.72 544.92 2.46 545.98 1.18 547.02 C 1.15 553.70 0.95 560.39 1.18 567.07 C 4.31 562.87 7.31 558.57 10.10 554.13 C 13.53 548.66 18.21 544.13 21.91 538.85 C 27.23 531.61 33.79 525.44 39.55 518.57 C 46.91 509.80 56.67 503.61 65.08 495.97 C 78.03 485.79 89.60 473.92 99.65 460.89 C 103.90 454.77 108.73 449.09 113.12 443.07 C 120.04 433.36 124.38 422.20 129.27 411.41 C 130.79 411.69 132.31 411.96 133.84 412.24 C 131.55 415.70 129.75 419.43 128.48 423.38 C 127.61 425.48 126.52 427.56 124.44 428.69 C 124.93 428.57 125.92 428.31 126.41 428.18 C 124.77 431.81 122.70 435.21 120.66 438.63 C 116.62 445.47 110.81 451.02 106.39 457.59 C 100.35 464.78 94.00 471.72 87.31 478.30 C 80.95 483.53 74.48 488.77 69.23 495.16 C 67.70 496.84 66.01 498.37 64.19 499.73 C 63.91 500.30 63.63 500.88 63.36 501.47 C 58.80 504.47 55.57 508.99 51.28 512.32 C 45.34 517.12 41.32 523.83 35.10 528.32 C 33.75 530.40 32.08 532.28 29.73 533.24 C 29.71 533.66 29.67 534.52 29.66 534.94 C 28.41 536.23 27.16 537.53 25.85 538.76 C 24.53 540.67 23.42 542.80 21.55 544.26 C 17.01 548.00 14.20 553.36 9.72 557.16 C 9.62 557.63 9.41 558.56 9.30 559.03 C 5.78 563.11 2.92 567.66 0.00 572.18 L 0.00 444.50 C 1.46 444.16 3.01 444.05 4.34 443.30 C 15.18 437.13 26.12 430.88 35.40 422.45 C 43.21 416.16 50.43 409.15 57.07 401.63 C 57.07 401.12 57.07 400.08 57.08 399.56 M 5.84 448.90 L 4.98 448.64 L 4.16 449.28 L 4.22 450.17 C 3.48 450.24 2.00 450.37 1.26 450.43 C 1.19 455.96 1.12 461.49 1.33 467.02 C 5.60 464.69 10.07 461.78 11.58 456.91 C 10.78 455.54 9.74 454.31 9.01 452.91 C 8.38 450.92 9.59 448.95 9.90 447.03 C 8.46 447.43 6.90 447.76 5.84 448.90 Z" />
<path fill="#0f0b0b" opacity="1.00" d=" M 70.80 440.32 C 71.74 441.11 72.93 441.70 73.53 442.84 C 73.34 444.50 72.53 446.03 71.51 447.34 C 71.48 447.37 71.42 447.42 71.39 447.44 C 67.30 449.16 67.14 454.21 64.18 457.04 C 62.47 458.54 60.33 460.01 57.93 459.56 C 60.82 457.25 64.18 455.07 65.50 451.43 C 66.59 447.86 70.02 445.46 70.51 441.67 C 70.58 441.33 70.73 440.66 70.80 440.32 Z" />
<path fill="#0f0b0b" opacity="1.00" d=" M 59.36 483.57 C 62.97 481.96 64.89 477.46 69.02 477.09 C 68.09 481.40 64.21 485.39 59.66 485.65 C 59.58 485.13 59.43 484.09 59.36 483.57 Z" />
<path fill="#0f0b0b" opacity="1.00" d=" M 26.14 515.41 C 27.95 512.93 30.58 511.29 32.82 509.25 C 33.96 513.09 30.01 517.10 26.14 515.41 Z" />
</g>
<g id="#ffffffff">
<path fill="#ffffff" opacity="1.00" d=" M 71.39 447.44 C 71.42 447.42 71.48 447.37 71.51 447.34 C 71.48 447.37 71.42 447.42 71.39 447.44 Z" />
</g>
<g id="#5391beff">
<path fill="#5391be" opacity="1.00" d=" M 1.19 1.31 C 22.27 0.48 43.38 1.63 64.48 1.34 C 56.13 3.05 47.49 1.01 39.15 2.51 C 36.21 4.39 33.46 6.57 30.81 8.84 C 26.73 12.96 25.56 18.87 23.80 24.19 C 16.71 20.75 9.20 17.78 1.19 17.77 C 1.17 12.29 1.20 6.80 1.19 1.31 M 2.29 2.29 C 2.32 2.60 2.37 3.23 2.39 3.54 C 4.23 3.50 6.08 3.50 7.92 3.48 C 6.43 1.87 4.29 2.09 2.29 2.29 Z" />
<path fill="#5391be" opacity="1.00" d=" M 168.58 1.50 C 187.73 1.22 206.88 1.60 226.04 1.36 C 234.70 0.77 243.38 1.35 252.05 1.07 C 284.37 1.22 316.70 1.13 349.02 1.14 C 368.03 0.62 387.03 1.32 406.04 1.18 C 406.59 2.06 407.15 2.94 407.72 3.82 C 408.81 2.94 409.91 2.06 411.00 1.18 C 421.33 1.04 431.66 1.15 441.99 1.16 C 446.76 1.24 451.71 0.24 456.34 1.87 C 461.47 3.91 465.02 8.33 468.68 12.25 C 473.33 17.25 473.60 24.50 473.40 30.94 C 473.30 42.39 468.88 53.70 461.38 62.33 C 453.81 72.36 443.04 79.39 431.81 84.71 C 428.72 86.11 425.39 86.81 422.13 87.65 C 423.88 88.95 425.79 90.03 427.94 90.49 C 432.55 91.54 437.01 94.24 439.42 98.39 C 440.65 103.30 439.78 108.79 436.72 112.89 C 433.63 118.64 428.12 122.40 422.64 125.65 C 423.12 125.89 423.60 126.14 424.09 126.38 C 427.58 125.72 430.91 124.45 434.31 123.46 C 435.94 124.70 437.72 125.75 439.64 126.50 C 443.88 128.15 447.31 131.71 452.00 132.17 C 458.36 132.86 465.17 132.82 471.07 130.03 C 475.01 128.13 477.21 124.12 478.55 120.14 C 487.51 121.86 496.23 124.63 505.14 126.58 C 512.85 127.95 520.77 126.77 528.41 125.43 C 537.96 123.58 545.58 116.59 550.70 108.64 C 553.05 105.11 553.61 100.85 554.89 96.91 C 561.17 93.72 567.95 91.17 573.22 86.31 C 577.42 82.17 582.62 78.87 585.58 73.62 C 589.45 67.46 590.78 59.32 587.44 52.63 C 584.88 47.38 578.50 45.26 573.00 45.72 C 563.21 46.82 553.52 49.57 544.98 54.56 C 547.17 51.25 550.78 49.23 552.94 45.89 C 558.25 38.41 560.54 28.97 559.76 19.88 C 559.21 11.91 552.03 5.12 544.06 4.87 C 531.95 4.25 520.41 9.27 509.89 14.74 C 511.08 10.43 512.19 6.01 514.39 2.07 C 515.73 1.21 517.47 1.60 518.99 1.44 C 547.33 1.62 575.67 1.37 604.00 1.45 C 605.98 1.48 607.97 1.60 609.95 1.84 C 616.95 6.03 625.19 9.93 628.38 18.04 C 631.41 23.71 631.37 30.69 628.47 36.38 C 626.16 39.42 622.63 41.18 620.02 43.94 C 616.58 47.74 611.26 48.40 606.81 50.43 C 608.18 52.48 610.68 53.02 612.68 54.23 C 615.62 62.74 614.80 72.90 609.17 80.18 C 604.34 86.82 596.02 89.62 588.24 90.94 C 588.31 91.74 588.44 93.34 588.50 94.13 C 588.26 94.11 587.77 94.07 587.53 94.05 C 587.57 93.32 587.64 91.85 587.68 91.12 C 586.78 91.26 584.99 91.55 584.09 91.69 C 580.62 101.67 585.19 112.76 580.33 122.37 C 576.10 131.35 571.59 140.39 564.71 147.67 C 559.53 153.79 552.56 158.17 545.05 160.86 C 539.89 162.65 534.38 162.93 528.99 163.48 C 523.03 164.04 517.28 162.12 511.52 161.01 C 511.56 159.61 511.61 158.21 511.66 156.81 C 508.35 164.07 504.18 170.94 499.21 177.18 C 499.23 177.96 499.28 179.52 499.30 180.31 C 498.52 180.26 496.96 180.18 496.18 180.14 C 492.90 183.14 489.89 186.60 485.83 188.58 C 482.93 189.96 480.01 191.35 477.40 193.24 C 472.86 193.89 468.49 195.26 464.09 196.49 C 463.27 196.35 461.63 196.05 460.81 195.91 C 466.20 193.69 471.50 190.78 474.88 185.86 C 478.87 181.49 479.99 174.39 476.67 169.35 C 473.66 165.87 469.61 163.30 465.38 161.56 C 459.71 160.17 453.85 159.38 448.01 159.26 C 437.17 159.51 426.32 158.72 415.53 160.11 C 416.64 158.37 417.81 156.66 418.80 154.85 C 420.29 152.28 419.55 149.19 419.64 146.38 C 411.56 138.33 399.27 136.97 388.44 138.09 C 392.70 134.77 397.80 132.34 401.02 127.84 C 404.13 123.66 404.36 117.98 402.93 113.12 C 401.04 106.43 395.27 101.19 388.65 99.35 C 384.77 98.43 380.74 98.62 376.78 98.37 C 383.18 94.35 387.81 88.28 392.79 82.72 C 400.44 72.74 407.06 60.90 406.82 47.95 C 406.88 38.53 401.67 28.97 392.80 25.19 C 380.79 20.02 367.18 21.28 354.61 23.43 C 346.10 25.39 337.35 27.18 329.76 31.71 C 322.62 35.97 314.98 39.74 309.17 45.83 C 309.22 41.59 309.72 37.28 308.90 33.09 C 307.89 29.38 305.76 25.45 301.94 24.06 C 296.81 21.93 290.97 22.94 285.96 24.92 C 276.76 28.88 268.77 35.21 261.84 42.36 C 259.53 34.53 258.05 25.94 252.24 19.79 C 246.88 13.94 238.81 11.75 231.11 11.67 C 229.87 8.64 229.63 5.33 229.02 2.14 C 210.68 1.79 192.33 2.12 173.99 1.99 C 172.18 1.93 170.38 1.70 168.58 1.50 Z" />
<path fill="#5391be" opacity="1.00" d=" M 4.16 449.28 L 4.98 448.64 L 5.84 448.90 C 5.43 449.22 4.62 449.85 4.22 450.17 L 4.16 449.28 Z" />
</g>
<g id="#2a688dff">
<path fill="#2a688d" opacity="1.00" d=" M 64.48 1.34 C 67.58 0.82 70.74 0.64 73.88 0.80 C 74.94 2.75 76.29 4.52 77.83 6.11 C 77.25 4.37 76.61 2.65 75.98 0.92 C 100.29 1.60 124.62 1.05 148.94 1.23 C 155.48 1.39 162.04 0.84 168.58 1.50 C 170.38 1.70 172.18 1.93 173.99 1.99 C 192.33 2.12 210.68 1.79 229.02 2.14 C 229.63 5.33 229.87 8.64 231.11 11.67 C 238.81 11.75 246.88 13.94 252.24 19.79 C 258.05 25.94 259.53 34.53 261.84 42.36 C 268.77 35.21 276.76 28.88 285.96 24.92 C 290.97 22.94 296.81 21.93 301.94 24.06 C 305.76 25.45 307.89 29.38 308.90 33.09 C 309.72 37.28 309.22 41.59 309.17 45.83 C 314.98 39.74 322.62 35.97 329.76 31.71 C 337.35 27.18 346.10 25.39 354.61 23.43 C 367.18 21.28 380.79 20.02 392.80 25.19 C 401.67 28.97 406.88 38.53 406.82 47.95 C 407.06 60.90 400.44 72.74 392.79 82.72 C 387.81 88.28 383.18 94.35 376.78 98.37 C 380.74 98.62 384.77 98.43 388.65 99.35 C 395.27 101.19 401.04 106.43 402.93 113.12 C 404.36 117.98 404.13 123.66 401.02 127.84 C 397.80 132.34 392.70 134.77 388.44 138.09 C 399.27 136.97 411.56 138.33 419.64 146.38 C 419.55 149.19 420.29 152.28 418.80 154.85 C 417.81 156.66 416.64 158.37 415.53 160.11 C 426.32 158.72 437.17 159.51 448.01 159.26 C 453.85 159.38 459.71 160.17 465.38 161.56 C 469.61 163.30 473.66 165.87 476.67 169.35 C 479.99 174.39 478.87 181.49 474.88 185.86 C 471.50 190.78 466.20 193.69 460.81 195.91 C 461.63 196.05 463.27 196.35 464.09 196.49 C 454.85 198.35 445.33 200.42 435.90 198.60 C 424.61 197.82 414.45 192.52 404.14 188.36 C 400.87 193.00 396.40 196.53 392.07 200.12 C 381.92 208.62 367.80 212.06 354.85 209.45 C 351.29 208.85 348.51 205.99 344.94 205.60 C 340.12 207.14 337.22 212.30 332.06 213.15 C 328.83 213.29 325.53 212.62 322.59 211.27 C 319.65 209.57 318.96 205.92 317.62 203.06 C 309.80 203.96 302.00 206.37 294.08 204.97 C 286.41 204.88 279.06 202.28 272.56 198.35 C 271.45 197.49 270.70 196.22 270.28 194.90 C 271.26 191.17 273.24 187.64 273.03 183.68 C 276.63 178.33 277.84 171.67 277.99 165.32 C 278.05 163.63 278.88 161.77 277.75 160.27 C 277.40 160.09 276.68 159.74 276.33 159.56 C 277.06 159.48 277.79 159.40 278.54 159.32 C 278.94 161.46 278.59 164.04 280.47 165.57 C 283.91 168.93 287.96 172.15 292.90 172.76 C 301.49 174.47 310.98 171.85 316.91 165.25 C 308.54 166.54 299.89 167.33 291.48 165.99 C 286.30 164.89 283.97 159.71 281.61 155.57 C 273.24 157.80 263.97 160.12 255.59 156.67 C 250.78 155.00 247.42 151.03 244.70 146.91 C 243.72 148.37 242.91 150.24 243.76 151.97 C 245.81 155.57 249.46 157.80 252.93 159.85 C 249.83 166.70 245.39 172.83 242.12 179.61 C 237.50 177.67 232.29 176.92 228.31 173.67 C 225.39 171.19 221.77 173.83 218.84 174.92 C 216.06 176.41 212.88 175.78 209.94 175.30 C 210.41 172.77 210.90 170.25 211.41 167.74 C 211.32 167.43 211.13 166.81 211.04 166.51 C 213.30 162.70 213.26 158.17 214.12 153.95 C 215.54 146.94 215.37 139.76 215.42 132.65 C 223.44 136.82 233.22 134.79 240.98 130.94 C 247.07 127.81 253.57 123.30 255.06 116.15 C 246.19 122.37 236.24 128.21 225.06 128.23 C 219.02 128.66 213.55 125.58 208.86 122.11 C 205.30 124.79 201.88 127.87 197.60 129.37 C 191.12 131.27 183.98 130.74 178.10 127.29 C 179.55 126.09 181.05 124.82 181.12 122.77 C 179.86 123.26 178.61 123.77 177.36 124.29 C 171.78 124.00 166.29 125.69 160.72 125.03 C 155.91 124.67 151.06 123.60 146.91 121.05 C 144.45 119.37 142.98 116.67 141.36 114.24 C 137.40 113.60 135.06 117.28 131.63 118.32 C 125.00 119.11 117.76 118.65 111.96 115.03 C 106.81 111.54 105.62 105.00 104.59 99.32 C 103.96 99.29 102.71 99.24 102.09 99.22 C 101.46 106.14 103.59 114.23 110.00 117.89 C 116.28 121.50 123.92 122.19 131.00 121.38 C 134.24 121.11 136.09 117.74 138.69 116.58 C 140.38 119.48 140.63 123.81 144.01 125.72 C 151.00 131.52 160.76 131.51 169.14 129.39 C 171.21 129.10 173.69 127.81 175.50 129.49 C 178.00 131.39 180.86 132.69 183.94 133.34 C 183.83 144.24 180.49 154.69 179.24 165.46 C 173.16 164.60 166.96 163.98 161.15 161.88 C 156.45 160.18 152.84 156.59 149.25 153.27 C 137.05 160.41 121.87 164.33 108.10 159.58 C 101.54 157.93 95.51 154.70 89.97 150.88 C 85.76 147.46 82.73 142.86 79.46 138.59 C 76.74 135.14 75.89 130.77 74.12 126.86 C 71.14 125.70 67.87 126.57 64.96 127.53 C 56.33 130.57 47.11 131.67 37.99 131.46 C 39.63 131.19 41.27 130.93 42.92 130.68 C 36.54 130.94 30.49 128.57 24.71 126.15 C 24.39 126.50 23.76 127.18 23.44 127.52 C 23.46 126.90 23.51 125.67 23.53 125.05 C 21.61 124.16 19.69 123.27 17.77 122.38 C 15.58 117.76 12.15 113.40 12.15 108.07 C 11.84 105.23 12.93 102.55 13.89 99.95 C 9.67 96.68 4.59 94.26 1.33 89.93 C 0.62 82.32 1.72 74.67 1.33 67.04 C 1.12 50.62 1.42 34.20 1.19 17.77 C 9.20 17.78 16.71 20.75 23.80 24.19 C 25.56 18.87 26.73 12.96 30.81 8.84 C 33.46 6.57 36.21 4.39 39.15 2.51 C 47.49 1.01 56.13 3.05 64.48 1.34 M 162.70 10.56 C 167.09 11.44 168.16 6.73 169.64 3.74 C 168.73 2.51 167.52 1.66 166.00 1.39 C 164.31 4.20 162.74 7.19 162.70 10.56 M 144.79 5.69 C 143.07 8.53 141.88 11.75 142.27 15.12 C 145.97 13.12 146.83 8.48 147.63 4.73 C 146.79 3.32 145.15 4.66 144.79 5.69 M 329.14 85.17 C 327.84 86.07 327.22 87.45 327.05 88.98 C 331.92 87.63 337.25 84.41 338.89 79.42 C 334.79 79.38 332.04 82.79 329.14 85.17 M 354.98 87.80 C 358.33 87.02 362.10 86.18 364.35 83.33 C 365.21 82.33 366.35 79.85 363.95 80.29 C 360.21 81.48 356.85 84.36 354.98 87.80 M 322.00 119.33 C 326.14 119.53 331.46 117.45 332.83 113.23 C 328.59 113.83 324.80 116.15 322.00 119.33 Z" />
<path fill="#2a688d" opacity="1.00" d=" M 466.55 1.00 C 479.38 1.34 492.21 1.17 505.04 1.25 C 536.36 0.38 567.72 1.07 599.06 0.81 C 602.70 0.80 606.44 0.62 609.95 1.84 C 607.97 1.60 605.98 1.48 604.00 1.45 C 575.67 1.37 547.33 1.62 518.99 1.44 C 517.47 1.60 515.73 1.21 514.39 2.07 C 512.19 6.01 511.08 10.43 509.89 14.74 C 520.41 9.27 531.95 4.25 544.06 4.87 C 552.03 5.12 559.21 11.91 559.76 19.88 C 560.54 28.97 558.25 38.41 552.94 45.89 C 550.78 49.23 547.17 51.25 544.98 54.56 C 553.52 49.57 563.21 46.82 573.00 45.72 C 578.50 45.26 584.88 47.38 587.44 52.63 C 590.78 59.32 589.45 67.46 585.58 73.62 C 582.62 78.87 577.42 82.17 573.22 86.31 C 567.95 91.17 561.17 93.72 554.89 96.91 C 553.61 100.85 553.05 105.11 550.70 108.64 C 545.58 116.59 537.96 123.58 528.41 125.43 C 520.77 126.77 512.85 127.95 505.14 126.58 C 496.23 124.63 487.51 121.86 478.55 120.14 C 477.21 124.12 475.01 128.13 471.07 130.03 C 465.17 132.82 458.36 132.86 452.00 132.17 C 447.31 131.71 443.88 128.15 439.64 126.50 C 437.72 125.75 435.94 124.70 434.31 123.46 C 438.53 119.32 442.84 114.99 445.38 109.56 C 447.99 103.94 446.81 96.87 442.68 92.29 C 440.25 89.91 436.83 89.06 433.87 87.56 C 437.73 85.41 442.10 84.36 445.85 81.98 C 459.63 74.17 472.07 62.34 477.08 46.96 C 480.93 36.11 481.15 23.83 476.87 13.06 C 474.63 8.10 469.50 5.45 466.55 1.00 Z" />
<path fill="#2a688d" opacity="1.00" d=" M 2.29 2.29 C 4.29 2.09 6.43 1.87 7.92 3.48 C 6.08 3.50 4.23 3.50 2.39 3.54 C 2.37 3.23 2.32 2.60 2.29 2.29 Z" />
<path fill="#2a688d" opacity="1.00" d=" M 205.35 237.57 C 205.41 237.51 205.53 237.40 205.59 237.34 C 205.53 237.40 205.41 237.51 205.35 237.57 Z" />
<path fill="#2a688d" opacity="1.00" d=" M 84.71 367.96 C 85.07 367.48 85.80 366.50 86.17 366.01 C 85.80 366.50 85.07 367.48 84.71 367.96 Z" />
<path fill="#2a688d" opacity="1.00" d=" M 72.67 401.75 C 73.00 401.35 73.66 400.53 73.99 400.12 L 74.25 401.01 L 73.57 401.84 L 72.67 401.75 Z" />
<path fill="#2a688d" opacity="1.00" d=" M 92.26 423.29 C 92.81 423.75 92.81 423.75 92.26 423.29 Z" />
</g>
<g id="#fe8f54ff">
<path fill="#fe8f54" opacity="1.00" d=" M 196.09 132.91 C 200.34 131.59 203.63 128.46 207.16 125.91 C 208.39 129.50 214.20 130.60 212.90 134.93 C 212.02 141.52 210.97 148.08 209.74 154.60 C 208.63 155.95 207.51 157.31 206.73 158.89 C 201.42 169.68 198.73 181.62 192.80 192.12 C 191.34 194.40 189.38 196.90 190.55 199.76 C 189.39 201.40 188.10 202.96 186.83 204.53 C 186.07 203.93 185.25 203.42 184.39 203.00 C 184.21 203.60 183.85 204.79 183.67 205.39 C 178.09 208.53 176.68 215.41 174.13 220.80 C 174.00 221.48 173.75 222.82 173.62 223.50 C 175.50 223.14 177.38 222.77 179.25 222.40 C 180.67 218.25 182.00 213.96 184.89 210.55 C 185.09 211.16 185.48 212.38 185.68 212.99 C 182.88 219.68 179.95 227.46 183.86 234.36 C 181.99 237.83 180.25 241.48 177.17 244.07 C 182.12 243.82 184.41 238.74 187.55 235.63 C 187.72 235.41 188.06 234.98 188.23 234.77 C 190.27 234.67 192.30 234.33 194.11 233.34 C 201.43 229.76 208.79 226.02 215.03 220.71 C 215.20 222.84 216.11 225.48 214.17 227.10 C 211.12 229.76 207.49 231.74 204.75 234.77 C 202.61 237.21 199.87 238.99 197.02 240.52 C 196.06 240.42 194.14 240.22 193.18 240.12 C 193.91 241.20 194.24 243.11 195.96 242.87 C 199.73 242.78 202.66 239.89 205.35 237.57 C 205.41 237.51 205.53 237.40 205.59 237.34 C 207.62 235.13 210.06 233.34 212.76 232.03 C 213.37 232.11 214.58 232.25 215.19 232.33 C 213.55 233.71 211.87 235.06 210.02 236.16 C 209.34 236.06 207.99 235.84 207.31 235.73 C 208.11 236.97 208.64 238.52 210.01 239.30 C 211.65 239.78 213.32 240.16 214.98 240.58 C 209.27 244.67 203.21 248.30 197.81 252.80 C 196.72 254.01 195.05 253.68 193.61 253.71 C 194.74 252.11 195.63 250.35 195.95 248.41 L 195.24 247.80 C 194.88 247.53 194.17 246.97 193.81 246.70 C 191.03 248.09 188.42 249.80 185.77 251.43 C 186.41 252.34 187.05 253.25 187.72 254.15 C 188.11 254.41 188.90 254.92 189.30 255.18 L 189.65 255.38 C 190.32 255.68 191.67 256.30 192.35 256.60 C 182.90 262.03 173.50 267.96 166.12 276.09 C 162.55 279.48 158.78 282.88 156.62 287.41 C 152.77 295.89 146.71 303.39 144.60 312.62 C 144.17 313.77 144.73 314.90 145.11 315.97 C 143.75 315.18 142.39 314.37 141.03 313.56 C 140.40 313.63 139.14 313.76 138.50 313.83 C 138.17 311.92 138.62 309.23 135.94 309.16 C 135.97 308.96 136.02 308.55 136.05 308.35 C 136.85 308.30 137.66 308.26 138.47 308.22 C 138.17 307.80 137.57 306.95 137.28 306.53 C 140.30 305.18 138.71 302.14 137.85 299.89 C 139.85 296.05 141.78 291.73 140.15 287.37 C 138.05 290.97 136.49 294.87 134.23 298.39 C 131.95 298.75 128.93 298.21 127.48 300.48 C 125.36 303.66 124.58 307.55 124.13 311.30 C 126.36 308.60 127.32 305.20 128.51 301.99 C 129.49 302.05 131.44 302.18 132.42 302.25 C 132.49 308.25 131.30 314.17 129.93 319.99 C 129.59 321.46 128.35 322.46 127.47 323.62 C 127.54 323.87 127.67 324.39 127.73 324.64 C 126.02 324.60 124.31 324.56 122.60 324.52 C 122.50 325.17 122.30 326.47 122.20 327.13 C 122.28 330.46 123.44 333.70 123.33 337.04 C 122.09 341.02 119.66 344.67 119.48 348.96 C 119.33 353.39 117.83 357.56 116.02 361.55 C 116.89 361.74 118.64 362.14 119.52 362.33 C 119.39 362.68 119.13 363.37 119.00 363.71 C 121.57 361.49 124.17 359.29 126.86 357.23 C 126.91 362.13 127.21 367.14 125.93 371.93 C 124.15 378.92 119.38 384.70 117.73 391.74 C 116.82 395.52 115.19 399.07 113.07 402.31 C 112.21 402.37 110.51 402.48 109.66 402.54 C 109.76 399.40 109.87 396.27 109.80 393.13 C 112.62 387.71 114.01 381.66 117.29 376.47 C 119.12 372.07 119.49 365.73 115.12 362.66 C 114.11 362.53 112.10 362.28 111.09 362.15 C 111.25 362.84 111.57 364.23 111.73 364.93 C 110.52 364.53 109.31 364.18 108.09 363.83 C 109.63 357.30 114.71 352.09 115.08 345.24 C 115.45 341.67 115.55 337.93 114.39 334.50 C 112.78 332.31 109.96 331.54 107.61 330.41 C 107.33 330.75 106.76 331.43 106.48 331.78 C 107.28 332.46 108.09 333.14 108.88 333.86 C 108.41 338.19 109.07 342.57 108.47 346.89 C 107.51 351.09 105.75 355.06 103.88 358.93 C 100.57 364.57 100.89 371.56 97.09 377.01 C 98.36 376.80 99.63 376.60 100.91 376.44 C 101.73 376.84 102.55 377.26 103.37 377.68 C 103.85 376.09 104.32 374.51 104.88 372.95 C 105.85 370.59 106.77 368.19 107.53 365.75 C 107.96 368.79 109.03 371.89 108.18 374.96 C 106.50 381.32 104.63 387.64 103.58 394.15 C 102.93 397.56 102.24 401.22 99.82 403.88 C 97.94 405.97 95.96 407.96 94.02 410.01 C 93.85 410.18 93.51 410.52 93.34 410.69 C 91.09 412.57 90.01 415.31 88.82 417.90 C 87.55 420.78 85.00 422.76 83.17 425.25 C 81.35 427.60 80.39 430.46 78.79 432.96 C 77.46 434.59 75.62 435.70 74.14 437.20 C 74.26 438.33 74.83 439.22 75.84 439.88 C 75.52 440.47 75.22 441.08 74.92 441.70 C 77.73 441.59 80.18 440.28 82.30 438.52 C 83.16 439.27 84.01 440.02 84.90 440.74 C 82.87 445.94 80.00 450.76 77.56 455.77 C 77.10 457.38 75.33 457.65 74.06 458.34 C 74.26 456.28 74.35 454.22 74.44 452.17 C 73.96 452.53 73.49 452.91 73.01 453.28 C 69.31 453.98 67.28 457.32 64.86 459.85 C 63.12 461.83 60.87 463.23 58.74 464.75 C 58.47 465.01 57.92 465.54 57.64 465.80 C 57.35 466.09 56.77 466.66 56.48 466.94 L 56.06 465.45 C 50.91 466.42 50.99 472.47 49.19 476.29 C 46.44 481.34 41.24 484.30 37.37 488.38 C 35.02 490.77 33.33 493.70 31.04 496.14 C 29.90 497.67 27.93 496.55 26.38 496.54 C 26.56 497.37 26.74 498.22 26.92 499.07 C 25.19 499.38 23.47 499.70 21.74 500.03 C 22.15 501.00 22.55 502.02 23.00 502.99 C 23.48 503.39 24.46 504.18 24.95 504.58 C 26.79 504.59 28.63 504.49 30.46 504.36 C 27.17 508.44 23.70 512.36 20.24 516.30 C 19.96 514.34 19.57 512.40 19.13 510.48 C 19.27 510.18 19.57 509.58 19.71 509.29 C 18.42 508.83 17.12 508.37 15.83 507.92 C 12.32 512.04 11.72 517.90 7.74 521.69 C 5.54 524.50 1.40 526.25 1.19 530.21 L 3.09 530.71 C 2.65 530.98 1.76 531.53 1.31 531.81 C 0.55 527.91 1.42 523.96 1.23 520.03 C 1.31 516.84 0.83 513.58 1.54 510.45 C 3.87 508.33 7.38 508.70 10.03 507.14 C 16.47 503.77 22.49 497.66 22.58 489.96 C 21.94 490.45 20.66 491.43 20.02 491.92 C 20.92 490.86 21.76 489.75 22.55 488.62 C 22.59 488.17 22.67 487.28 22.71 486.83 C 22.79 485.60 22.86 484.37 22.93 483.15 C 24.57 482.75 26.22 482.35 27.84 481.87 C 28.08 481.70 28.56 481.36 28.80 481.19 C 30.34 479.97 31.83 478.63 32.91 476.99 C 34.36 474.73 33.31 471.75 34.48 469.44 C 37.36 466.07 41.12 463.55 43.88 460.05 L 45.21 462.24 C 45.14 461.81 45.01 460.96 44.94 460.54 L 45.09 460.36 C 45.48 460.99 46.25 462.26 46.64 462.89 C 50.89 462.24 55.08 459.43 56.28 455.14 C 57.26 452.37 57.88 449.49 58.60 446.64 C 61.91 443.80 66.63 442.03 68.48 437.86 C 70.60 429.79 59.71 424.73 53.57 428.59 C 51.34 430.53 49.22 432.60 46.85 434.40 C 45.52 431.59 45.03 427.48 41.32 426.94 C 41.17 430.12 42.02 433.30 41.73 436.47 C 39.48 440.95 35.48 444.17 32.16 447.82 C 30.21 448.43 28.22 449.10 26.62 450.44 C 22.44 453.68 18.23 456.90 13.70 459.64 C 14.63 456.83 13.33 454.41 12.01 452.02 C 12.10 449.57 12.35 447.13 12.31 444.68 C 19.99 441.29 26.36 435.74 33.20 430.99 C 43.98 423.01 51.62 411.72 58.56 400.45 C 58.19 400.23 57.45 399.79 57.08 399.56 L 56.91 399.41 C 55.11 395.29 52.22 391.77 50.06 387.84 C 48.30 385.02 47.26 381.82 45.41 379.06 C 45.24 378.85 44.91 378.43 44.75 378.22 C 44.06 376.05 43.28 373.91 42.39 371.82 C 43.37 371.27 44.24 370.60 44.99 369.80 C 45.11 369.04 45.34 367.54 45.46 366.79 L 44.30 366.63 C 44.63 366.52 45.27 366.30 45.59 366.19 C 45.60 366.87 45.63 368.24 45.65 368.92 C 45.88 369.38 46.35 370.31 46.59 370.77 L 46.22 370.98 C 45.59 375.35 48.34 379.63 50.54 383.32 C 54.07 388.13 56.12 394.07 60.85 397.93 C 63.85 395.95 66.85 393.88 69.22 391.15 C 75.16 384.00 81.53 376.87 84.71 367.96 C 85.07 367.48 85.80 366.50 86.17 366.01 C 90.19 358.04 93.45 349.65 95.55 340.95 C 99.93 326.63 103.41 311.99 105.69 297.17 C 107.36 288.64 112.41 281.31 115.03 273.09 C 116.67 267.86 120.32 263.67 122.83 258.88 C 126.11 252.51 130.66 246.84 135.86 241.94 C 135.73 241.10 135.46 239.43 135.33 238.60 C 136.12 238.60 137.70 238.60 138.49 238.60 C 142.05 234.44 146.36 231.04 150.13 227.09 C 154.73 221.81 159.29 216.47 163.12 210.59 C 164.13 212.31 165.97 213.87 165.81 216.04 C 166.01 219.78 162.79 222.13 160.80 224.84 C 158.65 227.26 157.70 230.38 156.16 233.17 C 154.55 236.18 151.55 238.01 149.14 240.32 C 150.84 241.46 152.81 240.24 154.20 239.18 C 156.94 237.06 158.49 233.88 159.82 230.77 C 161.41 226.19 167.16 225.28 169.27 221.07 C 170.05 218.90 170.02 216.55 170.35 214.29 C 173.82 211.23 177.00 206.46 175.27 201.68 C 173.19 205.07 171.40 208.62 169.26 211.97 C 167.61 210.85 165.95 209.74 164.28 208.66 C 171.14 198.33 178.93 187.95 181.00 175.40 C 182.41 175.50 183.97 175.27 185.20 176.12 C 186.30 177.54 186.77 179.29 187.41 180.93 C 185.44 184.69 184.55 188.84 183.74 192.97 C 183.25 196.36 180.63 198.86 179.73 202.09 C 180.39 202.26 181.71 202.59 182.37 202.75 C 182.32 202.19 182.23 201.05 182.18 200.48 C 182.87 200.33 184.25 200.02 184.94 199.86 C 187.21 196.79 185.98 192.92 185.21 189.56 C 188.34 189.65 191.22 188.53 193.54 186.46 C 193.61 185.74 193.74 184.29 193.81 183.57 C 192.40 184.34 191.21 185.41 190.22 186.67 C 189.11 186.67 187.99 186.67 186.88 186.68 C 187.49 184.01 188.30 181.40 189.38 178.89 C 188.84 177.25 188.27 175.63 187.67 174.01 C 189.36 172.00 191.07 169.85 191.37 167.13 C 192.01 162.69 194.24 157.98 192.01 153.64 C 191.52 153.97 190.55 154.64 190.07 154.97 C 188.42 158.75 187.96 162.93 188.74 166.98 C 189.40 169.50 187.20 171.33 186.06 173.30 C 185.10 173.30 183.20 173.30 182.25 173.30 C 182.67 169.60 184.07 166.13 184.76 162.49 C 186.19 152.88 186.92 143.16 186.61 133.43 C 189.77 133.67 193.04 133.97 196.09 132.91 M 192.77 140.80 C 191.83 143.39 191.44 146.14 191.75 148.89 C 193.91 146.66 194.81 143.50 194.53 140.44 C 194.09 140.53 193.21 140.71 192.77 140.80 M 194.20 163.53 C 195.86 166.74 196.97 170.59 195.22 174.02 C 193.74 176.82 193.51 179.97 193.43 183.07 C 196.43 182.20 195.01 178.38 196.26 176.16 C 197.90 172.32 200.35 166.97 196.70 163.52 C 196.07 163.53 194.83 163.53 194.20 163.53 M 166.58 232.64 C 164.29 237.22 162.85 242.15 160.90 246.83 C 156.58 249.46 153.91 254.14 152.91 259.02 C 151.60 264.68 146.85 268.35 142.77 272.03 L 144.20 272.07 L 142.76 273.47 C 146.36 274.68 149.78 272.92 152.92 271.36 C 156.12 267.44 156.53 262.34 157.82 257.65 C 160.66 254.81 164.97 253.81 168.04 251.16 C 170.61 247.75 170.39 243.24 171.54 239.31 C 173.03 237.80 175.31 236.96 176.14 234.89 C 177.51 232.35 177.58 229.44 177.47 226.64 C 176.82 226.52 175.53 226.29 174.88 226.17 C 172.34 228.60 169.89 231.25 166.58 232.64 M 141.19 242.04 C 141.40 243.38 140.98 245.03 142.01 246.11 C 143.04 247.63 145.25 248.80 144.40 250.96 C 143.13 254.66 141.28 258.13 139.51 261.62 C 137.73 265.22 134.68 267.99 132.83 271.55 C 131.75 277.16 133.72 283.84 129.41 288.47 C 128.05 290.40 124.61 289.29 123.86 291.72 C 125.77 291.54 128.02 292.02 129.59 290.65 C 133.90 287.68 131.92 280.59 136.57 278.04 C 137.85 278.63 139.17 279.17 140.50 279.68 C 140.50 278.28 140.49 276.89 140.46 275.51 C 137.81 275.21 135.19 276.30 134.16 278.95 C 133.22 277.10 133.72 275.03 133.75 273.07 C 137.15 269.99 141.03 267.38 143.90 263.77 C 147.32 259.24 146.65 253.23 146.19 247.93 C 145.64 245.37 143.90 242.66 141.19 242.04 M 176.98 248.79 C 176.04 250.52 175.27 252.37 173.91 253.83 C 172.80 255.15 170.64 257.29 173.49 258.08 C 173.47 258.42 173.44 259.10 173.43 259.44 C 174.76 259.44 176.08 259.44 177.42 259.44 C 180.40 256.37 183.30 252.93 183.47 248.41 C 182.82 248.48 181.52 248.63 180.87 248.70 L 181.23 248.01 C 179.83 248.27 178.25 248.07 176.98 248.79 M 159.70 267.59 C 158.65 269.18 159.31 271.77 157.36 272.71 C 157.63 272.90 158.18 273.29 158.46 273.49 C 159.00 273.53 160.08 273.61 160.62 273.65 C 160.75 273.23 161.00 272.40 161.12 271.99 C 165.00 271.98 167.13 267.53 166.79 264.09 C 166.43 264.20 165.69 264.42 165.32 264.53 C 162.74 263.25 160.92 265.67 159.70 267.59 M 152.62 273.77 C 151.07 276.35 150.10 279.22 149.23 282.09 C 147.01 287.56 144.12 293.10 143.98 299.10 C 145.27 298.23 146.61 297.29 147.21 295.79 C 147.25 296.38 147.33 297.55 147.37 298.14 C 152.60 294.73 152.05 287.72 155.47 283.07 C 157.05 280.78 156.84 277.81 155.79 275.36 C 155.10 275.37 153.72 275.40 153.03 275.42 C 152.93 275.01 152.72 274.18 152.62 273.77 M 119.70 278.91 C 119.41 281.17 119.38 283.45 119.18 285.72 C 115.89 288.71 115.15 293.27 115.32 297.51 C 115.76 297.74 116.63 298.18 117.07 298.40 C 113.86 298.41 113.36 302.31 111.52 304.26 C 114.53 304.77 116.02 301.97 117.74 300.10 C 118.45 296.11 117.28 290.79 121.45 288.42 C 124.50 286.36 125.40 282.01 123.74 278.82 C 123.23 276.86 120.02 276.82 119.70 278.91 M 119.84 302.92 C 119.69 305.59 120.29 308.47 119.02 310.95 C 118.01 313.29 116.12 315.04 114.39 316.84 C 117.45 320.86 114.40 325.89 115.23 330.42 C 117.70 331.50 118.32 328.65 118.94 327.09 C 119.87 323.70 121.99 318.88 118.07 316.60 C 119.05 313.59 121.97 311.42 121.87 308.04 C 121.90 306.19 122.42 303.24 119.84 302.92 M 84.53 370.79 C 83.24 373.88 86.73 373.84 88.71 374.62 C 88.59 376.87 88.56 379.33 87.03 381.16 C 79.47 388.94 72.60 397.37 66.40 406.28 C 65.08 408.22 64.52 410.52 63.52 412.62 C 61.34 415.46 57.25 414.61 54.16 415.44 C 54.21 415.96 54.31 416.99 54.35 417.50 C 55.06 417.55 56.48 417.66 57.18 417.71 C 56.70 419.79 56.84 421.87 57.80 423.79 C 60.62 423.00 60.36 420.19 60.39 417.87 C 64.21 417.72 65.16 413.55 66.89 410.89 C 68.39 407.57 71.20 405.05 72.67 401.75 L 73.57 401.84 L 74.25 401.01 L 73.99 400.12 C 78.52 394.68 82.49 388.57 88.38 384.45 C 91.34 381.28 95.19 376.72 92.86 372.19 C 91.48 368.97 87.19 370.13 84.53 370.79 M 91.21 390.11 C 90.67 392.59 89.42 394.83 88.55 397.21 C 88.12 397.39 87.27 397.74 86.84 397.92 C 84.83 400.95 83.76 404.51 81.68 407.52 C 79.89 410.70 76.84 412.83 74.51 415.58 C 72.15 418.52 68.20 420.93 68.93 425.28 C 69.38 424.90 70.28 424.14 70.73 423.75 C 70.79 424.29 70.93 425.37 70.99 425.90 C 76.92 420.21 85.08 416.86 89.36 409.50 C 92.36 405.98 92.08 401.16 93.66 397.04 C 94.63 394.42 95.36 391.70 95.66 388.91 C 94.74 387.69 93.83 386.45 92.92 385.23 C 91.35 386.35 91.73 388.47 91.21 390.11 M 70.80 440.32 C 70.73 440.66 70.58 441.33 70.51 441.67 C 65.17 442.62 61.84 447.97 60.77 452.93 C 60.46 455.30 58.31 456.51 56.57 457.81 C 56.49 458.38 56.33 459.52 56.25 460.10 C 56.67 459.96 57.51 459.69 57.93 459.56 C 60.33 460.01 62.47 458.54 64.18 457.04 C 67.14 454.21 67.30 449.16 71.39 447.44 C 71.42 447.42 71.48 447.37 71.51 447.34 C 72.53 446.03 73.34 444.50 73.53 442.84 C 72.93 441.70 71.74 441.11 70.80 440.32 Z" />
<path fill="#fe8f54" opacity="1.00" d=" M 255.92 161.15 C 262.73 162.74 269.89 162.42 276.33 159.56 C 276.68 159.74 277.40 160.09 277.75 160.27 C 278.88 161.77 278.05 163.63 277.99 165.32 C 274.71 172.05 271.88 178.98 269.07 185.92 C 267.27 187.14 265.55 188.58 264.70 190.65 C 261.20 198.37 255.19 204.46 250.48 211.40 C 244.13 217.69 237.70 223.96 230.69 229.52 C 230.17 229.49 229.11 229.42 228.59 229.38 C 228.68 228.66 228.86 227.23 228.96 226.52 C 229.34 225.38 229.69 224.23 230.01 223.07 C 229.09 222.10 228.04 221.27 227.03 220.42 C 230.13 218.05 232.56 214.36 231.81 210.30 C 231.25 210.34 230.12 210.43 229.56 210.47 C 228.29 212.61 227.10 214.80 225.71 216.86 C 223.88 219.67 220.73 221.14 217.90 222.71 C 217.49 221.98 216.68 220.50 216.28 219.76 C 219.25 216.54 223.05 214.22 225.94 210.93 C 234.95 200.86 242.12 189.31 248.48 177.44 C 250.73 171.91 253.53 166.63 255.92 161.15 M 238.70 201.36 C 243.19 202.35 244.93 196.63 244.55 193.14 C 241.40 194.76 239.87 198.20 238.70 201.36 Z" />
<path fill="#fe8f54" opacity="1.00" d=" M 217.69 224.93 C 219.61 224.59 221.53 224.19 223.32 223.39 C 221.97 225.21 220.68 227.16 218.61 228.24 C 218.38 227.41 217.92 225.76 217.69 224.93 Z" />
<path fill="#fe8f54" opacity="1.00" d=" M 215.77 239.20 C 217.36 235.05 221.58 233.76 225.31 232.25 C 222.38 234.88 219.32 237.45 215.77 239.20 Z" />
<path fill="#fe8f54" opacity="1.00" d=" M 136.79 321.49 C 137.75 322.40 138.74 323.40 138.32 324.88 C 137.36 330.01 134.25 334.46 133.48 339.66 C 132.59 345.06 131.54 350.90 127.36 354.82 C 125.63 355.20 123.87 355.42 122.12 355.64 C 121.88 356.26 121.39 357.49 121.15 358.11 C 121.26 357.35 121.48 355.84 121.59 355.08 C 121.82 355.03 122.27 354.94 122.49 354.89 L 124.40 354.49 C 125.15 351.39 125.26 348.14 126.46 345.17 C 127.99 342.02 130.81 339.53 131.53 336.00 C 132.40 333.36 130.80 330.86 130.35 328.31 C 133.57 327.18 135.91 324.84 136.79 321.49 Z" />
<path fill="#fe8f54" opacity="1.00" d=" M 97.73 411.39 C 100.44 411.94 102.90 410.73 104.61 408.67 C 104.72 412.01 104.48 415.60 102.29 418.33 C 99.60 421.81 97.19 425.49 95.31 429.47 C 93.13 433.82 88.59 436.06 84.52 438.27 C 84.11 433.87 87.94 430.66 89.80 427.01 C 92.34 426.10 94.95 424.85 96.32 422.39 C 98.16 418.90 97.61 414.71 96.18 411.18 C 96.56 411.23 97.34 411.34 97.73 411.39 Z" />
<path fill="#fe8f54" opacity="1.00" d=" M 53.14 432.19 C 55.94 430.06 59.60 431.58 62.52 432.64 C 60.45 435.19 58.61 437.99 56.01 440.05 C 54.04 441.68 51.72 443.20 50.99 445.81 C 49.35 450.46 48.49 455.96 43.73 458.57 C 43.41 453.70 38.64 451.47 35.37 448.69 C 37.94 446.20 40.95 444.06 42.83 440.96 C 44.94 436.73 49.51 434.85 53.14 432.19 Z" />
<path fill="#fe8f54" opacity="1.00" d=" M 5.84 448.90 C 6.90 447.76 8.46 447.43 9.90 447.03 C 9.59 448.95 8.38 450.92 9.01 452.91 C 9.74 454.31 10.78 455.54 11.58 456.91 C 10.07 461.78 5.60 464.69 1.33 467.02 C 1.12 461.49 1.19 455.96 1.26 450.43 C 2.00 450.37 3.48 450.24 4.22 450.17 C 4.62 449.85 5.43 449.22 5.84 448.90 Z" />
<path fill="#fe8f54" opacity="1.00" d=" M 29.83 452.31 C 33.04 452.20 35.53 454.25 37.67 456.39 C 35.06 458.50 33.05 461.23 30.55 463.46 C 29.21 464.79 27.62 466.02 26.89 467.83 C 26.29 470.13 26.42 472.56 25.95 474.90 C 24.66 477.09 22.78 479.36 20.13 479.80 C 16.44 478.99 12.84 480.69 9.15 480.37 C 6.55 480.15 3.95 480.24 1.37 480.65 C 1.20 477.09 0.90 473.51 1.45 469.98 C 11.21 464.74 22.33 460.83 29.83 452.31 Z" />
<path fill="#fe8f54" opacity="1.00" d=" M 66.84 467.60 C 67.50 471.78 62.89 473.83 60.29 476.24 C 59.92 474.76 59.54 473.30 59.23 471.82 C 59.17 471.52 59.06 470.91 59.01 470.60 C 61.89 470.42 64.46 469.14 66.84 467.60 Z" />
<path fill="#fe8f54" opacity="1.00" d=" M 1.38 483.28 C 4.12 483.29 6.74 484.11 8.98 485.69 C 11.17 485.47 13.31 484.95 15.38 484.24 C 15.94 484.57 17.05 485.24 17.61 485.58 C 15.11 493.14 8.25 497.80 2.08 502.21 C 2.04 500.22 1.98 498.24 2.04 496.26 C 2.76 494.85 2.63 493.53 1.27 492.58 C 1.17 489.48 1.23 486.38 1.38 483.28 Z" />
</g>
<g id="#fec58bff">
<path fill="#fec58b" opacity="1.00" d=" M 206.73 158.89 C 207.51 157.31 208.63 155.95 209.74 154.60 C 207.86 166.67 204.84 178.56 200.56 190.01 C 197.05 203.41 188.56 214.99 185.91 228.67 C 185.24 231.03 187.45 232.75 188.23 234.77 C 188.06 234.98 187.72 235.41 187.55 235.63 C 187.36 235.28 186.96 234.60 186.76 234.25 C 186.04 234.28 184.59 234.34 183.86 234.36 C 179.95 227.46 182.88 219.68 185.68 212.99 C 185.48 212.38 185.09 211.16 184.89 210.55 C 186.38 208.89 186.78 206.70 186.83 204.53 C 188.10 202.96 189.39 201.40 190.55 199.76 C 192.41 197.62 192.37 194.75 192.80 192.12 C 198.73 181.62 201.42 169.68 206.73 158.89 Z" />
<path fill="#fec58b" opacity="1.00" d=" M 264.70 190.65 C 265.55 188.58 267.27 187.14 269.07 185.92 C 266.34 192.56 262.38 198.60 258.73 204.75 C 252.61 214.68 244.15 222.78 236.27 231.29 C 230.20 237.16 223.36 242.17 217.14 247.88 C 206.96 254.89 196.75 261.91 187.93 270.65 C 188.65 270.82 190.09 271.16 190.80 271.34 C 189.84 271.84 188.85 272.26 187.85 272.66 C 185.19 271.69 183.68 274.47 181.73 275.67 C 174.24 280.76 167.26 287.20 163.43 295.56 C 161.00 300.04 159.96 305.06 158.58 309.92 C 157.93 312.28 157.22 314.86 158.29 317.22 C 158.60 317.34 159.23 317.56 159.54 317.68 C 160.62 318.61 162.33 318.79 163.32 317.62 C 163.64 317.46 164.27 317.15 164.59 317.00 C 171.16 316.44 176.34 311.59 182.88 311.05 C 182.60 311.63 182.04 312.79 181.76 313.38 C 173.94 316.69 165.94 319.67 158.50 323.82 C 159.15 323.71 160.46 323.49 161.11 323.38 C 159.86 324.02 158.62 324.71 157.41 325.44 L 156.77 325.93 C 156.33 325.72 155.45 325.29 155.01 325.08 C 153.18 328.56 151.42 332.13 150.68 336.04 C 148.12 343.52 147.79 351.52 145.69 359.13 C 145.06 361.22 145.26 363.42 145.43 365.57 C 153.24 363.10 160.94 360.26 168.98 358.64 C 173.94 357.54 178.77 355.95 183.60 354.39 C 183.80 354.29 184.21 354.09 184.41 353.99 C 184.87 353.92 185.79 353.76 186.24 353.68 C 186.66 353.44 187.48 352.95 187.89 352.71 C 192.29 350.26 197.05 348.49 201.15 345.53 C 201.47 345.35 202.12 345.00 202.44 344.82 C 205.51 343.23 208.12 340.89 210.50 338.40 L 209.11 338.98 C 210.64 337.85 212.37 337.05 214.09 336.25 C 214.64 336.01 215.74 335.53 216.29 335.29 C 216.05 337.09 217.65 339.47 216.17 340.94 C 202.76 348.21 189.53 356.20 174.83 360.65 C 166.17 363.09 157.16 365.43 149.90 371.01 C 147.86 372.71 145.45 373.82 143.13 375.06 C 139.90 380.94 138.05 387.48 136.42 393.96 C 134.36 399.88 131.67 405.56 129.17 411.30 C 130.68 411.80 133.22 411.74 134.03 410.04 C 135.32 407.26 136.45 404.40 137.94 401.73 C 135.91 409.41 132.21 416.43 128.48 423.38 C 129.75 419.43 131.55 415.70 133.84 412.24 C 132.31 411.96 130.79 411.69 129.27 411.41 C 124.38 422.20 120.04 433.36 113.12 443.07 C 108.73 449.09 103.90 454.77 99.65 460.89 C 89.60 473.92 78.03 485.79 65.08 495.97 C 56.67 503.61 46.91 509.80 39.55 518.57 C 33.79 525.44 27.23 531.61 21.91 538.85 C 18.21 544.13 13.53 548.66 10.10 554.13 C 7.31 558.57 4.31 562.87 1.18 567.07 C 0.95 560.39 1.15 553.70 1.18 547.02 C 2.46 545.98 3.72 544.92 4.98 543.86 C 4.82 543.17 4.50 541.79 4.34 541.10 C 3.45 542.11 2.56 543.08 1.65 544.10 C 1.06 541.15 1.05 538.14 1.20 535.16 C 5.96 533.26 10.83 531.18 14.41 527.38 C 17.61 524.48 18.92 520.27 20.24 516.30 C 23.70 512.36 27.17 508.44 30.46 504.36 C 33.92 501.92 37.33 499.30 39.81 495.82 C 42.71 491.77 46.37 488.17 50.88 485.96 C 53.39 484.54 56.45 483.54 57.96 480.89 C 59.82 478.25 59.42 474.85 59.23 471.82 C 59.54 473.30 59.92 474.76 60.29 476.24 C 62.89 473.83 67.50 471.78 66.84 467.60 C 69.86 467.31 73.05 468.52 75.93 467.25 C 78.76 465.20 80.36 462.02 82.17 459.15 C 83.88 456.19 87.40 454.77 88.76 451.57 C 90.18 448.95 90.38 445.94 90.53 443.04 C 93.73 442.10 97.12 440.79 99.18 438.03 C 101.25 435.27 101.49 431.69 102.84 428.61 C 105.03 425.68 108.88 424.28 110.61 420.97 C 111.77 417.40 111.28 413.56 111.41 409.87 C 113.83 409.53 116.73 409.60 118.30 407.36 C 125.61 399.17 124.53 386.86 131.85 378.68 C 134.79 375.40 137.38 371.53 137.31 366.93 C 138.25 362.83 134.41 359.93 134.37 355.98 C 140.12 349.59 140.44 340.57 141.81 332.56 C 145.78 328.09 148.03 321.64 145.11 315.97 C 144.73 314.90 144.17 313.77 144.60 312.62 C 146.71 303.39 152.77 295.89 156.62 287.41 C 158.78 282.88 162.55 279.48 166.12 276.09 C 173.50 267.96 182.90 262.03 192.35 256.60 C 191.67 256.30 190.32 255.68 189.65 255.38 L 189.30 255.18 C 190.92 255.39 192.31 254.55 193.61 253.71 C 195.05 253.68 196.72 254.01 197.81 252.80 C 203.21 248.30 209.27 244.67 214.98 240.58 C 213.32 240.16 211.65 239.78 210.01 239.30 C 211.93 239.46 213.86 239.43 215.77 239.20 C 219.32 237.45 222.38 234.88 225.31 232.25 C 226.42 231.32 227.51 230.35 228.59 229.38 C 229.11 229.42 230.17 229.49 230.69 229.52 C 237.70 223.96 244.13 217.69 250.48 211.40 C 255.19 204.46 261.20 198.37 264.70 190.65 M 59.36 483.57 C 59.43 484.09 59.58 485.13 59.66 485.65 C 64.21 485.39 68.09 481.40 69.02 477.09 C 64.89 477.46 62.97 481.96 59.36 483.57 M 26.14 515.41 C 30.01 517.10 33.96 513.09 32.82 509.25 C 30.58 511.29 27.95 512.93 26.14 515.41 Z" />
<path fill="#fec58b" opacity="1.00" d=" M 174.13 220.80 C 176.68 215.41 178.09 208.53 183.67 205.39 C 182.78 210.86 179.24 215.31 177.28 220.40 C 176.49 220.50 174.92 220.70 174.13 220.80 Z" />
<path fill="#fec58b" opacity="1.00" d=" M 223.32 223.39 C 224.53 222.36 225.78 221.39 227.03 220.42 C 228.04 221.27 229.09 222.10 230.01 223.07 C 229.69 224.23 229.34 225.38 228.96 226.52 C 228.76 225.83 228.36 224.46 228.16 223.78 C 225.29 226.76 222.12 229.42 218.70 231.77 C 216.91 232.90 216.08 234.92 215.05 236.68 C 213.36 236.58 211.68 236.43 210.02 236.16 C 211.87 235.06 213.55 233.71 215.19 232.33 C 214.58 232.25 213.37 232.11 212.76 232.03 C 214.60 231.14 216.12 229.77 217.51 228.30 C 217.56 227.17 217.62 226.05 217.69 224.93 C 217.92 225.76 218.38 227.41 218.61 228.24 C 220.68 227.16 221.97 225.21 223.32 223.39 Z" />
<path fill="#fec58b" opacity="1.00" d=" M 166.58 232.64 C 169.89 231.25 172.34 228.60 174.88 226.17 C 174.29 227.91 173.69 229.63 173.10 231.36 C 173.51 231.30 174.33 231.17 174.74 231.10 C 169.75 232.92 167.97 238.35 166.99 243.07 C 165.85 250.44 155.98 251.99 155.21 259.58 C 154.27 265.31 151.05 272.35 144.20 272.07 L 142.77 272.03 C 146.85 268.35 151.60 264.68 152.91 259.02 C 153.91 254.14 156.58 249.46 160.90 246.83 C 162.85 242.15 164.29 237.22 166.58 232.64 Z" />
<path fill="#fec58b" opacity="1.00" d=" M 185.77 251.43 C 188.42 249.80 191.03 248.09 193.81 246.70 C 194.17 246.97 194.88 247.53 195.24 247.80 C 192.90 250.11 190.31 252.14 187.72 254.15 C 187.05 253.25 186.41 252.34 185.77 251.43 Z" />
<path fill="#fec58b" opacity="1.00" d=" M 176.98 248.79 C 178.25 248.07 179.83 248.27 181.23 248.01 L 180.87 248.70 C 179.32 252.50 176.05 255.03 173.49 258.08 C 170.64 257.29 172.80 255.15 173.91 253.83 C 175.27 252.37 176.04 250.52 176.98 248.79 Z" />
<path fill="#fec58b" opacity="1.00" d=" M 159.70 267.59 C 160.92 265.67 162.74 263.25 165.32 264.53 C 163.44 266.69 161.80 269.16 161.12 271.99 C 161.00 272.40 160.75 273.23 160.62 273.65 C 160.08 273.61 159.00 273.53 158.46 273.49 C 158.18 273.29 157.63 272.90 157.36 272.71 C 159.31 271.77 158.65 269.18 159.70 267.59 Z" />
<path fill="#fec58b" opacity="1.00" d=" M 152.62 273.77 C 152.72 274.18 152.93 275.01 153.03 275.42 C 153.31 277.88 153.95 280.54 152.75 282.87 C 150.92 287.18 148.90 291.42 147.21 295.79 C 146.61 297.29 145.27 298.23 143.98 299.10 C 144.12 293.10 147.01 287.56 149.23 282.09 C 150.10 279.22 151.07 276.35 152.62 273.77 Z" />
<path fill="#fec58b" opacity="1.00" d=" M 132.42 302.25 C 132.88 302.29 133.82 302.38 134.28 302.43 C 135.32 303.76 136.30 305.15 137.28 306.53 C 137.57 306.95 138.17 307.80 138.47 308.22 C 137.66 308.26 136.85 308.30 136.05 308.35 C 136.02 308.55 135.97 308.96 135.94 309.16 C 135.40 314.26 134.45 319.42 132.01 323.98 C 131.35 325.53 129.49 325.61 128.12 326.11 L 127.73 324.64 C 127.67 324.39 127.54 323.87 127.47 323.62 C 128.35 322.46 129.59 321.46 129.93 319.99 C 131.30 314.17 132.49 308.25 132.42 302.25 Z" />
<path fill="#fec58b" opacity="1.00" d=" M 136.79 321.49 C 137.48 319.97 137.53 318.07 138.76 316.85 C 141.57 319.23 143.83 323.25 141.70 326.82 C 139.04 331.85 138.89 337.63 137.78 343.09 C 137.04 347.11 134.98 350.70 133.22 354.34 C 131.26 354.38 129.29 354.44 127.36 354.82 C 131.54 350.90 132.59 345.06 133.48 339.66 C 134.25 334.46 137.36 330.01 138.32 324.88 C 138.74 323.40 137.75 322.40 136.79 321.49 Z" />
<path fill="#fec58b" opacity="1.00" d=" M 122.20 327.13 C 123.52 327.24 124.83 327.35 126.15 327.47 C 126.45 331.54 127.67 335.99 125.63 339.80 C 123.34 344.49 123.18 349.82 122.49 354.89 C 122.27 354.94 121.82 355.03 121.59 355.08 C 121.48 355.84 121.26 357.35 121.15 358.11 C 120.62 359.52 120.05 360.92 119.52 362.33 C 118.64 362.14 116.89 361.74 116.02 361.55 C 117.83 357.56 119.33 353.39 119.48 348.96 C 119.66 344.67 122.09 341.02 123.33 337.04 C 123.44 333.70 122.28 330.46 122.20 327.13 Z" />
<path fill="#fec58b" opacity="1.00" d=" M 108.47 346.89 C 109.07 342.57 108.41 338.19 108.88 333.86 C 109.46 334.39 110.61 335.46 111.19 336.00 C 111.13 339.34 111.27 342.69 111.15 346.04 C 111.10 349.32 109.20 352.11 108.21 355.15 C 106.60 360.05 104.78 364.88 103.44 369.87 C 102.73 371.46 100.42 373.22 102.11 374.90 C 103.62 375.85 104.08 373.83 104.88 372.95 C 104.32 374.51 103.85 376.09 103.37 377.68 C 102.55 377.26 101.73 376.84 100.91 376.44 C 99.63 376.60 98.36 376.80 97.09 377.01 C 100.89 371.56 100.57 364.57 103.88 358.93 C 105.75 355.06 107.51 351.09 108.47 346.89 Z" />
<path fill="#fec58b" opacity="1.00" d=" M 126.86 357.23 C 130.80 356.60 131.17 361.40 132.08 364.12 C 134.16 370.10 128.68 374.47 126.57 379.47 C 123.45 385.62 123.90 392.79 121.02 399.01 C 119.78 402.30 117.31 404.88 114.90 407.35 C 112.47 406.42 109.96 405.73 107.41 405.23 C 108.63 402.03 109.41 398.70 109.75 395.30 C 109.14 394.62 108.52 393.95 107.91 393.28 C 108.60 400.70 104.43 408.15 97.73 411.39 C 97.34 411.34 96.56 411.23 96.18 411.18 C 95.64 410.89 94.56 410.30 94.02 410.01 C 95.96 407.96 97.94 405.97 99.82 403.88 C 102.24 401.22 102.93 397.56 103.58 394.15 C 104.63 387.64 106.50 381.32 108.18 374.96 C 109.03 371.89 107.96 368.79 107.53 365.75 C 107.67 365.27 107.95 364.31 108.09 363.83 C 109.31 364.18 110.52 364.53 111.73 364.93 C 113.04 366.97 113.84 369.24 113.95 371.70 C 114.40 371.15 114.85 370.60 115.31 370.06 C 115.57 370.52 116.11 371.46 116.38 371.92 C 115.28 372.82 113.59 373.38 113.57 375.10 C 111.86 381.23 109.14 387.18 108.56 393.52 C 108.87 393.43 109.49 393.23 109.80 393.13 C 109.87 396.27 109.76 399.40 109.66 402.54 C 110.51 402.48 112.21 402.37 113.07 402.31 C 115.19 399.07 116.82 395.52 117.73 391.74 C 119.38 384.70 124.15 378.92 125.93 371.93 C 127.21 367.14 126.91 362.13 126.86 357.23 Z" />
<path fill="#fec58b" opacity="1.00" d=" M 86.84 397.92 C 87.27 397.74 88.12 397.39 88.55 397.21 C 87.37 400.93 88.29 405.35 85.63 408.53 C 82.83 412.10 79.79 415.54 76.15 418.28 C 74.08 419.82 72.23 421.65 70.73 423.75 C 70.28 424.14 69.38 424.90 68.93 425.28 C 68.20 420.93 72.15 418.52 74.51 415.58 C 76.84 412.83 79.89 410.70 81.68 407.52 C 83.76 404.51 84.83 400.95 86.84 397.92 Z" />
<path fill="#fec58b" opacity="1.00" d=" M 104.61 408.67 C 105.41 407.79 106.20 406.91 106.99 406.04 C 107.81 407.97 108.77 409.86 109.31 411.91 C 109.12 417.30 103.95 420.20 101.99 424.82 C 99.74 428.60 99.64 433.37 96.90 436.86 C 93.63 440.10 88.58 438.50 84.52 438.27 C 88.59 436.06 93.13 433.82 95.31 429.47 C 97.19 425.49 99.60 421.81 102.29 418.33 C 104.48 415.60 104.72 412.01 104.61 408.67 Z" />
<path fill="#fec58b" opacity="1.00" d=" M 88.82 417.90 C 90.01 415.31 91.09 412.57 93.34 410.69 C 93.42 413.44 93.84 416.29 93.03 418.98 C 91.82 421.60 89.15 423.14 87.63 425.55 C 84.10 430.65 81.78 437.01 75.84 439.88 C 74.83 439.22 74.26 438.33 74.14 437.20 C 75.62 435.70 77.46 434.59 78.79 432.96 C 80.39 430.46 81.35 427.60 83.17 425.25 C 85.00 422.76 87.55 420.78 88.82 417.90 Z" />
<path fill="#fec58b" opacity="1.00" d=" M 56.01 440.05 C 58.61 437.99 60.45 435.19 62.52 432.64 C 63.25 433.74 63.97 434.86 64.67 436.00 C 63.27 439.97 58.98 441.40 56.48 444.50 C 54.02 447.21 53.82 451.08 52.22 454.25 C 50.31 456.78 47.51 458.39 45.09 460.36 L 44.94 460.54 C 44.70 460.23 44.24 459.62 44.00 459.31 L 43.73 458.57 C 48.49 455.96 49.35 450.46 50.99 445.81 C 51.72 443.20 54.04 441.68 56.01 440.05 Z" />
<path fill="#fec58b" opacity="1.00" d=" M 77.56 455.77 C 80.00 450.76 82.87 445.94 84.90 440.74 C 85.95 441.53 87.04 442.28 88.13 443.04 C 86.00 448.03 83.74 453.00 80.63 457.47 C 78.50 461.33 75.10 464.92 70.28 464.54 C 71.47 462.43 72.70 460.34 74.06 458.34 C 75.33 457.65 77.10 457.38 77.56 455.77 Z" />
<path fill="#fec58b" opacity="1.00" d=" M 60.77 452.93 C 61.84 447.97 65.17 442.62 70.51 441.67 C 70.02 445.46 66.59 447.86 65.50 451.43 C 64.18 455.07 60.82 457.25 57.93 459.56 C 57.51 459.69 56.67 459.96 56.25 460.10 C 56.33 459.52 56.49 458.38 56.57 457.81 C 58.31 456.51 60.46 455.30 60.77 452.93 Z" />
<path fill="#fec58b" opacity="1.00" d=" M 64.86 459.85 C 67.28 457.32 69.31 453.98 73.01 453.28 C 70.49 459.13 66.22 464.56 60.36 467.28 C 58.94 468.17 58.21 466.97 57.64 465.80 C 57.92 465.54 58.47 465.01 58.74 464.75 C 60.87 463.23 63.12 461.83 64.86 459.85 Z" />
<path fill="#fec58b" opacity="1.00" d=" M 30.55 463.46 C 33.05 461.23 35.06 458.50 37.67 456.39 C 38.60 457.35 39.93 458.33 39.73 459.86 C 37.52 463.49 33.90 465.92 31.25 469.18 C 30.79 470.92 30.73 472.75 30.32 474.51 C 28.57 477.23 25.78 479.06 23.54 481.35 C 25.29 481.36 27.05 481.35 28.80 481.19 C 28.56 481.36 28.08 481.70 27.84 481.87 C 26.22 482.35 24.57 482.75 22.93 483.15 C 22.00 482.02 21.08 480.89 20.13 479.80 C 22.78 479.36 24.66 477.09 25.95 474.90 C 26.42 472.56 26.29 470.13 26.89 467.83 C 27.62 466.02 29.21 464.79 30.55 463.46 Z" />
<path fill="#fec58b" opacity="1.00" d=" M 49.19 476.29 C 50.99 472.47 50.91 466.42 56.06 465.45 L 56.48 466.94 C 55.88 470.94 54.72 474.83 53.33 478.62 C 44.76 482.98 40.45 492.10 33.79 498.59 C 30.87 501.40 26.84 502.26 23.00 502.99 C 22.55 502.02 22.15 501.00 21.74 500.03 C 23.47 499.70 25.19 499.38 26.92 499.07 C 26.74 498.22 26.56 497.37 26.38 496.54 C 27.93 496.55 29.90 497.67 31.04 496.14 C 33.33 493.70 35.02 490.77 37.37 488.38 C 41.24 484.30 46.44 481.34 49.19 476.29 Z" />
<path fill="#fec58b" opacity="1.00" d=" M 17.61 485.58 C 19.11 486.61 20.94 486.75 22.71 486.83 C 22.67 487.28 22.59 488.17 22.55 488.62 C 21.76 489.75 20.92 490.86 20.02 491.92 C 17.25 494.80 14.69 497.93 11.39 500.24 C 8.07 502.86 4.01 504.49 1.17 507.71 C 1.25 503.89 0.79 499.94 2.04 496.26 C 1.98 498.24 2.04 500.22 2.08 502.21 C 8.25 497.80 15.11 493.14 17.61 485.58 Z" />
<path fill="#fec58b" opacity="1.00" d=" M 7.74 521.69 C 11.72 517.90 12.32 512.04 15.83 507.92 C 17.12 508.37 18.42 508.83 19.71 509.29 C 19.57 509.58 19.27 510.18 19.13 510.48 C 16.97 514.51 15.73 519.15 12.48 522.52 C 9.64 525.55 6.64 528.50 3.09 530.71 L 1.19 530.21 C 1.40 526.25 5.54 524.50 7.74 521.69 Z" />
</g>
</svg>
